<svg version="1.1" viewBox="0.0 0.0 960.0 580.0" fill="none" stroke="none" stroke-linecap="square" stroke-miterlimit="10" xmlns:xlink="http://www.w3.org/1999/xlink" xmlns="http://www.w3.org/2000/svg"><clipPath id="g10e3d7ee89b_1_38.0"><path d="m0 0l960.0 0l0 720.0l-960.0 0l0 -720.0z" clip-rule="nonzero"/></clipPath><g clip-path="url(#g10e3d7ee89b_1_38.0)"><path fill="#000000" fill-opacity="0.0" d="m0 0l960.0 0l0 720.0l-960.0 0z" fill-rule="evenodd"/><path fill="#f2f3fb" d="m90.708664 307.08716l0 0c0 -14.611938 11.845299 -26.457245 26.457222 -26.457245l725.6682 0c7.0169067 0 13.746399 2.787445 18.708069 7.7491455c4.961731 4.9617004 7.7491455 11.691193 7.7491455 18.7081l0 105.82568c0 14.611938 -11.845276 26.457245 -26.457214 26.457245l-725.6682 0l0 0c-14.611923 0 -26.457222 -11.845306 -26.457222 -26.457245z" fill-rule="evenodd"/><path fill="#000000" fill-opacity="0.0" d="m94.490814 280.6299l771.0237 0l0 113.38583l-771.0237 0z" fill-rule="evenodd"/><path fill="#595959" d="m128.36218 376.7891q-1.25 0.96875 -2.890625 0.96875q-1.828125 0 -3.640625 -1.25q-3.5625 -2.3125 -5.625 -6.140625q-2.0625 -3.84375 -2.0625 -7.109375q0 -2.015625 0.875 -3.453125q0.46875 -0.671875 1.140625 -0.578125q0.765625 0 1.0625 0.765625q0.28125 1.53125 1.859375 2.203125q1.59375 0.671875 3.703125 0.671875q2.984375 0 5.671875 -0.859375q5.078125 -1.640625 10.84375 -4.421875q5.765625 -2.78125 11.65625 -6.328125q5.90625 -3.5625 11.375 -7.484375q5.484375 -3.9375 9.9375 -7.828125q4.46875 -3.890625 7.25 -7.4375q0.671875 -0.671875 1.34375 -0.203125q0.765625 0.296875 0.390625 1.25q-4.796875 8.171875 -11.71875 16.28125q-6.90625 8.109375 -15.640625 15.21875q-8.734375 7.09375 -19.109375 12.375q-2.296875 1.15625 -3.796875 1.828125q-1.484375 0.671875 -2.625 1.53125zm8.921875 -50.109375q-1.4375 -2.3125 -4.03125 -4.5625q-2.59375 -2.25 -5.625 -3.96875q-3.015625 -1.734375 -5.796875 -2.40625q-0.765625 -0.296875 -0.765625 -1.0625q0 -0.859375 0.765625 -1.15625q1.921875 -0.484375 4.078125 -0.71875q2.15625 -0.234375 4.46875 -0.234375q4.796875 0 9.25 1.15625q4.46875 1.140625 6.578125 3.828125q1.15625 1.34375 1.6875 2.734375q0.53125 1.390625 0.53125 2.734375q0 2.796875 -1.875 4.8125q-1.875 2.015625 -4.28125 2.015625q-2.875 0 -4.984375 -3.171875zm-13.34375 18.53125q-0.96875 -2.015625 -3.171875 -4.359375q-2.203125 -2.359375 -4.9375 -4.375q-2.734375 -2.015625 -5.328125 -2.890625q-0.765625 -0.375 -0.671875 -1.140625q0 -0.78125 0.859375 -0.96875q1.34375 -0.1875 2.78125 -0.328125q1.4375 -0.15625 2.984375 -0.15625q3.546875 0 7.09375 0.734375q3.5625 0.71875 6.390625 2.203125q2.828125 1.484375 4.171875 3.890625q1.25 2.109375 1.25 4.21875q0 2.875 -1.96875 4.796875q-1.96875 1.921875 -4.359375 1.921875q-1.453125 0 -2.796875 -0.859375q-1.34375 -0.875 -2.296875 -2.6875zm44.734375 -18.8125q-1.53125 -2.796875 -3.75 -5.53125q-2.203125 -2.734375 -5.28125 -5.03125q-0.375 -0.296875 -0.375 -0.765625q0 -0.578125 0.421875 -0.90625q0.4375 -0.34375 0.828125 -0.25q4.515625 0.28125 8.015625 1.578125q3.5 1.296875 5.234375 4.078125q1.140625 1.828125 1.140625 3.5625q0 2.109375 -1.25 3.453125q-1.234375 1.34375 -2.578125 1.34375q-1.546875 0 -2.40625 -1.53125zm9.03125 -8.359375q-2.125 -2.296875 -4.953125 -4.3125q-2.828125 -2.03125 -6.1875 -3.375q-0.671875 -0.375 -0.671875 -0.953125q0 -1.0625 0.953125 -1.25q1.15625 -0.1875 2.296875 -0.28125q1.15625 -0.09375 2.3125 -0.09375q2.78125 0 5.375 0.671875q2.59375 0.671875 4.421875 2.203125q1.15625 0.953125 1.625 2.015625q0.484375 1.0625 0.484375 2.109375q0 1.734375 -1.0625 3.03125q-1.046875 1.296875 -2.390625 1.296875q-1.25 0 -2.203125 -1.0625zm75.249954 58.078125q-1.046875 0 -1.921875 -0.765625q-0.859375 -0.765625 -0.859375 -2.984375q0 -0.953125 -0.765625 -0.953125q-9.015625 0 -14.203125 0.578125q-5.1875 0.578125 -7.828125 1.15625q-2.640625 0.578125 -3.984375 0.578125q-1.25 0 -2.6875 -1.25q-1.4375 -1.25 -2.546875 -3.125q-1.09375 -1.875 -1.484375 -3.890625l0 -0.1875q0 -0.671875 0.578125 -1.046875q0.578125 -0.390625 1.15625 -0.015625q1.4375 0.875 3.25 1.0625q1.828125 0.1875 4.609375 0.09375q2.015625 -0.1875 5.09375 -0.28125q3.078125 -0.109375 6.4375 -0.25q3.359375 -0.140625 6.375 -0.1875q3.03125 -0.046875 4.953125 -0.046875q0.578125 0 1.0 -0.421875q0.4375 -0.4375 0.4375 -0.921875q0 -1.15625 0.046875 -2.78125q0.046875 -1.640625 0.140625 -3.84375q0 -0.96875 -0.859375 -0.96875q-6.921875 0 -11.390625 0.34375q-4.453125 0.328125 -7.140625 0.8125q-2.6875 0.484375 -4.171875 0.828125q-1.484375 0.328125 -2.359375 0.328125q-1.25 0 -2.59375 -1.15625q-1.34375 -1.15625 -2.40625 -2.875q-1.046875 -1.734375 -1.53125 -3.453125l0 -0.203125q0 -0.671875 0.578125 -1.046875q0.578125 -0.390625 1.15625 0q1.0625 0.578125 2.734375 0.71875q1.6875 0.140625 4.375 0.046875q1.34375 -0.09375 4.3125 -0.1875q2.984375 -0.09375 6.53125 -0.1875q3.546875 -0.109375 6.8125 -0.203125q3.265625 -0.09375 5.28125 -0.1875q0.96875 -0.09375 1.0625 -1.0625q0.09375 -2.015625 0.28125 -3.015625q0.1875 -1.015625 0.390625 -2.171875l0 -0.1875q0 -1.34375 -1.4375 -1.34375q-7.6875 0 -12.734375 0.296875q-5.03125 0.28125 -8.15625 0.71875q-3.109375 0.421875 -4.84375 0.71875q-1.734375 0.28125 -2.78125 0.28125q-1.546875 0 -2.890625 -1.1875q-1.34375 -1.203125 -2.203125 -2.9375q-0.859375 -1.734375 -1.15625 -3.359375l0 -0.1875q0 -0.78125 0.625 -1.109375q0.625 -0.34375 1.203125 0.140625q1.0625 0.671875 2.5 0.921875q1.4375 0.234375 4.125 0.234375q1.921875 0 4.9375 -0.09375q3.03125 -0.09375 6.390625 -0.140625q3.359375 -0.0625 6.234375 -0.15625q2.890625 -0.09375 4.515625 -0.1875q2.5 -0.1875 4.125 -0.71875q1.640625 -0.53125 2.5 -1.875q0.671875 -0.953125 1.828125 -0.953125q0.578125 0 1.15625 0.28125q1.3437347 0.671875 3.9218597 2.21875q2.59375 1.53125 4.609375 3.15625q0.96875 0.765625 0.96875 1.828125q0 0.953125 -0.859375 1.53125q-1.25 0.96875 -1.78125 2.125q-0.53125 1.140625 -0.90625 2.875q-0.578125 2.203125 -0.96875 5.46875q-0.375 3.265625 -0.625 6.921875q-0.234375 3.640625 -0.328125 7.0q-0.09375 3.359375 -0.09375 5.75q0 1.921875 -2.03125 3.515625q-2.0156097 1.578125 -4.7031097 1.578125zm67.406204 0.671875q-1.25 0.96875 -2.890625 0.96875q-1.828125 0 -3.640625 -1.25q-3.5625 -2.3125 -5.625 -6.140625q-2.0625 -3.84375 -2.0625 -7.109375q0 -2.015625 0.875 -3.453125q0.46875 -0.671875 1.140625 -0.578125q0.765625 0 1.0625 0.765625q0.28125 1.53125 1.859375 2.203125q1.59375 0.671875 3.703125 0.671875q2.984375 0 5.671875 -0.859375q5.078125 -1.640625 10.84375 -4.421875q5.765625 -2.78125 11.65625 -6.328125q5.90625 -3.5625 11.375 -7.484375q5.484375 -3.9375 9.9375 -7.828125q4.46875 -3.890625 7.25 -7.4375q0.671875 -0.671875 1.34375 -0.203125q0.765625 0.296875 0.390625 1.25q-4.796875 8.171875 -11.71875 16.28125q-6.90625 8.109375 -15.640625 15.21875q-8.734375 7.09375 -19.109375 12.375q-2.296875 1.15625 -3.796875 1.828125q-1.484375 0.671875 -2.625 1.53125zm8.921875 -50.109375q-1.4375 -2.3125 -4.03125 -4.5625q-2.59375 -2.25 -5.625 -3.96875q-3.015625 -1.734375 -5.796875 -2.40625q-0.765625 -0.296875 -0.765625 -1.0625q0 -0.859375 0.765625 -1.15625q1.921875 -0.484375 4.078125 -0.71875q2.15625 -0.234375 4.46875 -0.234375q4.796875 0 9.25 1.15625q4.46875 1.140625 6.578125 3.828125q1.15625 1.34375 1.6875 2.734375q0.53125 1.390625 0.53125 2.734375q0 2.796875 -1.875 4.8125q-1.875 2.015625 -4.28125 2.015625q-2.875 0 -4.984375 -3.171875zm-13.34375 18.53125q-0.96875 -2.015625 -3.171875 -4.359375q-2.203125 -2.359375 -4.9375 -4.375q-2.734375 -2.015625 -5.328125 -2.890625q-0.765625 -0.375 -0.671875 -1.140625q0 -0.78125 0.859375 -0.96875q1.34375 -0.1875 2.78125 -0.328125q1.4375 -0.15625 2.984375 -0.15625q3.546875 0 7.09375 0.734375q3.5625 0.71875 6.390625 2.203125q2.828125 1.484375 4.171875 3.890625q1.25 2.109375 1.25 4.21875q0 2.875 -1.96875 4.796875q-1.96875 1.921875 -4.359375 1.921875q-1.453125 0 -2.796875 -0.859375q-1.34375 -0.875 -2.296875 -2.6875zm44.734375 -18.8125q-1.53125 -2.796875 -3.75 -5.53125q-2.203125 -2.734375 -5.28125 -5.03125q-0.375 -0.296875 -0.375 -0.765625q0 -0.578125 0.421875 -0.90625q0.4375 -0.34375 0.828125 -0.25q4.515625 0.28125 8.015625 1.578125q3.5 1.296875 5.234375 4.078125q1.140625 1.828125 1.140625 3.5625q0 2.109375 -1.25 3.453125q-1.234375 1.34375 -2.578125 1.34375q-1.546875 0 -2.40625 -1.53125zm9.03125 -8.359375q-2.125 -2.296875 -4.953125 -4.3125q-2.828125 -2.03125 -6.1875 -3.375q-0.671875 -0.375 -0.671875 -0.953125q0 -1.0625 0.953125 -1.25q1.15625 -0.1875 2.296875 -0.28125q1.15625 -0.09375 2.3125 -0.09375q2.78125 0 5.375 0.671875q2.59375 0.671875 4.421875 2.203125q1.15625 0.953125 1.625 2.015625q0.484375 1.0625 0.484375 2.109375q0 1.734375 -1.0625 3.03125q-1.046875 1.296875 -2.390625 1.296875q-1.25 0 -2.203125 -1.0625zm75.24997 58.078125q-1.046875 0 -1.921875 -0.765625q-0.859375 -0.765625 -0.859375 -2.984375q0 -0.953125 -0.765625 -0.953125q-9.015625 0 -14.203125 0.578125q-5.1875 0.578125 -7.828125 1.15625q-2.640625 0.578125 -3.984375 0.578125q-1.25 0 -2.6875 -1.25q-1.4375 -1.25 -2.546875 -3.125q-1.09375 -1.875 -1.484375 -3.890625l0 -0.1875q0 -0.671875 0.578125 -1.046875q0.578125 -0.390625 1.15625 -0.015625q1.4375 0.875 3.25 1.0625q1.828125 0.1875 4.609375 0.09375q2.015625 -0.1875 5.09375 -0.28125q3.078125 -0.109375 6.4375 -0.25q3.359375 -0.140625 6.375 -0.1875q3.03125 -0.046875 4.953125 -0.046875q0.578125 0 1.0 -0.421875q0.4375 -0.4375 0.4375 -0.921875q0 -1.15625 0.046875 -2.78125q0.046875 -1.640625 0.140625 -3.84375q0 -0.96875 -0.859375 -0.96875q-6.921875 0 -11.390625 0.34375q-4.453125 0.328125 -7.140625 0.8125q-2.6875 0.484375 -4.171875 0.828125q-1.484375 0.328125 -2.359375 0.328125q-1.25 0 -2.59375 -1.15625q-1.34375 -1.15625 -2.40625 -2.875q-1.046875 -1.734375 -1.53125 -3.453125l0 -0.203125q0 -0.671875 0.578125 -1.046875q0.578125 -0.390625 1.15625 0q1.0625 0.578125 2.734375 0.71875q1.6875 0.140625 4.375 0.046875q1.34375 -0.09375 4.3125 -0.1875q2.984375 -0.09375 6.53125 -0.1875q3.546875 -0.109375 6.8125 -0.203125q3.265625 -0.09375 5.28125 -0.1875q0.96875 -0.09375 1.0625 -1.0625q0.09375 -2.015625 0.28125 -3.015625q0.1875 -1.015625 0.390625 -2.171875l0 -0.1875q0 -1.34375 -1.4375 -1.34375q-7.6875 0 -12.734375 0.296875q-5.03125 0.28125 -8.15625 0.71875q-3.109375 0.421875 -4.84375 0.71875q-1.734375 0.28125 -2.78125 0.28125q-1.546875 0 -2.890625 -1.1875q-1.34375 -1.203125 -2.203125 -2.9375q-0.859375 -1.734375 -1.15625 -3.359375l0 -0.1875q0 -0.78125 0.625 -1.109375q0.625 -0.34375 1.203125 0.140625q1.0625 0.671875 2.5 0.921875q1.4375 0.234375 4.125 0.234375q1.921875 0 4.9375 -0.09375q3.03125 -0.09375 6.390625 -0.140625q3.359375 -0.0625 6.234375 -0.15625q2.890625 -0.09375 4.515625 -0.1875q2.5 -0.1875 4.125 -0.71875q1.640625 -0.53125 2.5 -1.875q0.671875 -0.953125 1.828125 -0.953125q0.578125 0 1.15625 0.28125q1.34375 0.671875 3.921875 2.21875q2.59375 1.53125 4.609375 3.15625q0.96875 0.765625 0.96875 1.828125q0 0.953125 -0.859375 1.53125q-1.25 0.96875 -1.78125 2.125q-0.53125 1.140625 -0.90625 2.875q-0.578125 2.203125 -0.96875 5.46875q-0.375 3.265625 -0.625 6.921875q-0.234375 3.640625 -0.328125 7.0q-0.09375 3.359375 -0.09375 5.75q0 1.921875 -2.03125 3.515625q-2.015625 1.578125 -4.703125 1.578125zm42.62494 6.53125l-0.1875 0q-1.53125 0 -2.015625 -1.53125l-0.1875 -0.78125l-0.09375 -0.28125q0 -0.484375 0.421875 -0.859375q0.4375 -0.390625 0.921875 -0.296875q1.71875 0.09375 4.40625 0.34375q2.6875 0.234375 5.375 0.234375l30.046875 0q1.734375 0 2.40625 -1.71875q1.734375 -4.421875 3.453125 -10.28125q1.734375 -5.859375 3.21875 -12.375q1.484375 -6.53125 2.53125 -13.015625q1.0625 -6.484375 1.453125 -12.140625q0.09375 -1.4375 0.09375 -2.4375q0 -1.015625 -0.09375 -1.6875q0 -0.671875 0 -0.96875q0 -0.671875 0.1875 -1.046875q0.09375 -0.390625 0.671875 -0.390625q0.578125 0 2.828125 0.53125q2.265625 0.53125 5.046875 1.25q2.78125 0.71875 5.328125 1.4375q2.546875 0.71875 3.703125 1.203125q0.859375 0.375 0.859375 1.25q0 1.53125 -1.4375 1.53125q-1.25 -0.09375 -1.875 0.4375q-0.625 0.515625 -1.015625 1.859375q-4.5 13.828125 -10.359375 25.59375q-5.859375 11.75 -11.515625 19.53125q-0.203125 0.390625 -0.203125 0.484375q0 0.953125 0.96875 0.953125l18.140625 0q0.953125 0 1.484375 -0.1875q0.53125 -0.1875 1.015625 -0.859375q0.578125 -0.78125 1.484375 -2.0625q0.90625 -1.296875 1.765625 -2.59375q0.875 -1.296875 1.25 -1.78125q0.578125 -0.671875 1.359375 -0.671875q0.46875 0 1.140625 0.28125q1.4375 0.765625 3.640625 2.359375q2.21875 1.578125 4.234375 3.171875q2.015625 1.578125 2.875 2.53125q0.578125 0.578125 0.578125 1.25q0 1.4375 -1.34375 1.4375l-73.828125 0q-2.6875 0 -4.9375 0.09375q-2.25 0.109375 -3.796875 0.203125zm1.34375 -60.296875l-0.1875 0q-1.53125 0 -2.015625 -1.53125l-0.1875 -0.765625l-0.09375 -0.28125q0 -0.578125 0.421875 -0.953125q0.4375 -0.390625 0.921875 -0.296875q1.71875 0.1875 4.40625 0.390625q2.6875 0.1875 5.375 0.1875l21.03125 0q0.765625 0 1.296875 -0.53125q0.53125 -0.53125 0.53125 -1.203125l0 -7.78125q0 -3.359375 -0.34375 -5.46875q-0.328125 -2.109375 -0.8125 -2.96875q-0.390625 -0.671875 -0.09375 -1.15625q0.1875 -0.484375 1.046875 -0.484375q1.0625 0 3.21875 0.25q2.15625 0.234375 4.703125 0.578125q2.546875 0.328125 4.703125 0.671875q2.171875 0.328125 3.125 0.515625q1.15625 0.390625 1.15625 1.546875q0 1.53125 -1.546875 1.71875q-2.109375 0.296875 -2.109375 2.109375l0 10.46875q0 0.671875 0.53125 1.203125q0.53125 0.53125 1.203125 0.53125l15.359375 0q1.828125 0 2.5 -1.15625l3.828125 -5.375q0.484375 -0.765625 1.34375 -0.765625q0.578125 0 1.25 0.28125q1.546875 0.765625 3.5625 2.15625q2.015625 1.390625 3.78125 2.796875q1.78125 1.390625 2.546875 2.25q0.578125 0.578125 0.578125 1.34375q0 1.34375 -1.25 1.34375l-71.140625 0q-2.59375 0 -4.890625 0.140625q-2.296875 0.140625 -3.75 0.234375zm22.765625 50.125q-2.125 0 -3.609375 -1.4375q-1.484375 -1.453125 -1.390625 -4.140625q0.09375 -1.140625 0.09375 -2.296875q0 -1.15625 0 -2.3125q0 -10.078125 -2.265625 -18.609375q-2.25 -8.546875 -7.328125 -14.890625q-0.484375 -0.765625 0 -1.4375q0.671875 -0.671875 1.4375 -0.1875q6.328125 4.125 11.125 9.125q4.8125 4.984375 7.59375 11.28125q2.78125 6.28125 2.96875 14.4375q0.109375 5.1875 -2.640625 7.828125q-2.734375 2.640625 -5.984375 2.640625zm107.03113 10.453125q-0.859375 0 -1.0625 -0.859375l0 -0.1875q0 -0.765625 0.875 -0.96875q7.484375 -1.25 13.53125 -4.3125q6.046875 -3.078125 9.640625 -7.53125q3.609375 -4.46875 3.609375 -9.84375q0 -3.9375 -1.875 -6.765625q-1.875 -2.84375 -5.0 -4.375q-3.109375 -1.53125 -6.859375 -1.53125q-3.9375 0 -7.390625 1.4375q-3.453125 1.4375 -6.0 3.609375q-2.546875 2.15625 -3.6875 4.546875q-0.875 1.734375 -2.453125 2.703125q-1.578125 0.953125 -3.21875 0.953125q-1.71875 0 -3.359314 -1.0625q-1.828125 -1.34375 -2.734375 -2.734375q-0.90625 -1.390625 -0.90625 -3.5q0 -1.34375 0.28125 -2.890625q0.578125 -3.359375 1.578125 -8.578125q1.015625 -5.234375 1.96875 -11.09375l0 -0.296875q0 -1.4375 -1.4375 -1.4375q-1.140625 0 -2.296875 0q-1.15625 0 -2.203125 -0.09375q-5.0 -0.28125 -7.546875 -2.625q-2.546875 -2.359375 -3.015625 -7.0625l0 -0.203125q0 -0.671875 0.671875 -0.953125q0.09375 -0.09375 0.375 -0.09375q0.578125 0 0.875 0.46875q1.046875 1.453125 3.0625 1.984375q2.015625 0.515625 5.09375 0.703125q0.765625 0 1.578125 0.0625q0.8125 0.046875 1.59375 0.046875q0.765625 0 1.625 -0.046875q0.859375 -0.0625 1.625 -0.0625q1.828064 0 2.031189 -1.8125q0.375 -1.921875 0.65625 -3.796875q0.296875 -1.875 0.578125 -3.59375q0.109375 -0.671875 0.15625 -1.25q0.046875 -0.578125 0.046875 -1.0625q0 -3.171875 -1.734375 -4.21875q-0.484375 -0.296875 -0.484375 -0.96875q0 -0.953125 0.96875 -0.953125q1.921875 0 3.984375 0.71875q2.0625 0.71875 4.359375 1.96875q3.5625 2.015625 3.359375 4.984375q0 1.734375 1.546875 2.3125q1.53125 0.671875 3.0625 1.15625q1.546875 0.46875 2.59375 0.578125q3.84375 0.28125 5.609375 1.765625q1.78125 1.484375 1.78125 3.21875q0 1.25 -0.859375 2.359375q-0.859375 1.09375 -2.59375 1.859375q-3.265625 1.25 -7.015625 2.21875q-3.734375 0.953125 -7.671875 1.53125q-1.734375 0.1875 -2.015625 1.921875q-0.953125 4.40625 -1.6875 8.78125q-0.71875 4.375 -0.90625 7.15625q-0.09375 2.390625 1.734375 2.390625q1.140625 0 2.109375 -0.671875q1.828125 -1.140625 4.46875 -2.578125q2.640625 -1.453125 6.140625 -2.5q3.5 -1.0625 7.828125 -1.0625q6.421875 0 11.5625 2.0625q5.140625 2.0625 8.109375 6.15625q2.984375 4.078125 2.984375 10.3125q0 7.0 -4.65625 12.140625q-4.65625 5.140625 -13.109375 8.0625q-8.453125 2.9375 -19.875 3.40625zm-0.765625 -64.125q0.390625 -0.1875 0.71875 -0.28125q0.34375 -0.09375 0.71875 -0.203125q1.0625 -0.46875 1.0625 -1.234375q0 -0.671875 -0.671875 -1.25l-0.484375 -0.484375q-0.390625 -0.28125 -0.859375 -0.28125q-0.96875 0 -1.25 0.859375q-0.09375 0.375 -0.25 0.765625q-0.140625 0.390625 -0.328125 0.859375l0 0.296875q0 0.46875 0.375 0.765625q0.390625 0.28125 0.96875 0.1875zm70.65625 67.59375q-2.5 0 -2.5 -2.3125q0 -0.484375 0.09375 -3.125q0.09375 -2.640625 0.28125 -6.765625q0.203125 -4.125 0.34375 -8.96875q0.140625 -4.859375 0.25 -9.75q0 -0.484375 -0.484375 -0.625q-0.484375 -0.140625 -0.765625 0.34375q-2.109375 3.546875 -4.421875 6.671875q-2.296875 3.109375 -4.703125 5.90625q-0.484375 0.671875 -1.34375 0.1875q-0.765625 -0.484375 -0.390625 -1.34375q2.40625 -4.796875 4.609375 -11.125q2.21875 -6.34375 3.984375 -13.734375q1.78125 -7.40625 2.734375 -15.171875l0.109375 -0.1875q0 -0.578125 -0.4375 -1.0625q-0.4375 -0.484375 -1.203125 -0.484375l-0.484375 0q-1.4375 0 -2.875 0.046875q-1.4375 0.046875 -2.5 0.140625l-0.1875 0q-1.53125 0 -2.015625 -1.53125l-0.09375 -0.375l-0.09375 -0.296875q0 -0.484375 0.421875 -0.90625q0.4375 -0.4375 1.015625 -0.34375q1.25 0.09375 2.96875 0.25q1.734375 0.140625 3.359375 0.140625l1.15625 0q1.828125 0 1.828125 -1.734375l0 -10.453125q0 -4.234375 -0.25 -6.203125q-0.234375 -1.96875 -0.71875 -3.015625q-0.1875 -0.484375 0.109375 -0.765625q0.28125 -0.296875 0.765625 -0.296875q1.25 0 3.59375 0.390625q2.359375 0.375 4.75 0.8125q2.40625 0.4375 3.65625 0.8125q0.859375 0.296875 0.859375 1.25q0 1.34375 -1.15625 1.53125q-1.25 0.203125 -1.78125 0.6875q-0.515625 0.46875 -0.515625 2.109375l0 13.4375q0 0.46875 0.328125 0.765625q0.34375 0.28125 0.71875 0.28125q0.484375 0 0.78125 -0.375l0.09375 -0.09375q0.46875 -0.78125 1.53125 -2.3125q1.0625 -1.53125 1.734375 -2.296875q0.28125 -0.484375 0.953125 -0.484375q0.671875 0 1.15625 0.390625q1.625 1.234375 3.546875 3.203125q1.921875 1.96875 2.875 3.21875q0.390625 0.390625 0.390625 0.96875q0 1.046875 -0.953125 1.046875l-11.328125 0q-1.828125 0 -1.828125 1.828125l0 7.109375q0 1.625 1.71875 2.015625q2.890625 0.5625 5.234375 1.8125q2.359375 1.25 3.609375 3.171875q0.1875 0.296875 0.578125 0.296875q0.671875 0 0.671875 -0.671875q-0.109375 -1.640625 -0.203125 -2.734375q-0.09375 -1.109375 -0.28125 -1.78125q-0.09375 -0.390625 0.09375 -0.765625q0.09375 -0.296875 0.859375 -0.109375q1.921875 0.390625 4.9375 1.453125q3.03125 1.046875 5.25 1.921875q0.765625 0.28125 1.625 0.28125l4.21875 0q0.765625 0 1.25 -0.53125q0.484375 -0.53125 0.484375 -1.203125l0 -4.703125q0 -0.765625 -0.484375 -1.234375q-0.484375 -0.484375 -1.25 -0.484375l-1.34375 0q-2.109375 0 -3.796875 0.046875q-1.671875 0.046875 -2.71875 0.140625l-0.203125 0q-1.140625 0 -1.4375 -1.15625q-0.09375 -0.46875 -0.578125 -0.609375q-0.46875 -0.15625 -0.859375 0.140625q-2.3125 1.90625 -4.671875 3.59375q-2.34375 1.671875 -4.828125 3.125q-0.203125 0.09375 -0.578125 0.09375q-0.484375 0 -0.765625 -0.390625q-0.296875 -0.28125 -0.296875 -0.671875q0 -0.484375 0.390625 -0.765625q2.96875 -2.6875 5.9375 -6.578125q2.984375 -3.890625 5.578125 -8.34375q2.59375 -4.46875 4.46875 -8.921875q1.875 -4.46875 2.546875 -8.3125q0.28125 -1.640625 0.28125 -2.21875q0.1875 -0.671875 0.28125 -0.765625q0.203125 -0.28125 0.96875 -0.28125q1.625 0.28125 4.40625 1.0q2.796875 0.71875 5.53125 1.59375q2.734375 0.859375 4.078125 1.4375q0.953125 0.390625 0.765625 1.34375q0 0.1875 -0.046875 0.4375q-0.046875 0.234375 -0.046875 0.421875q0 1.15625 0.671875 1.921875q2.875 3.65625 7.234375 6.6875q4.375 3.015625 9.265625 5.171875q4.90625 2.15625 9.125 3.40625q0.484375 0.09375 0.625 0.625q0.15625 0.53125 -0.328125 0.8125q-2.109375 1.53125 -4.03125 3.890625q-1.921875 2.359375 -3.078125 4.84375q-0.28125 0.875 -1.34375 0.875q-0.578125 0 -0.765625 -0.203125q-4.125 -2.78125 -8.109375 -7.046875q-3.984375 -4.28125 -7.109375 -9.3125q-3.125 -5.046875 -4.5625 -10.125q-0.09375 -0.671875 -0.953125 -0.671875q-0.578125 0 -0.96875 0.46875l-0.09375 0.09375q-3.15625 5.28125 -7.25 10.375q-4.078125 5.09375 -8.78125 9.3125q-0.1875 0.1875 -0.1875 0.578125q0 0.765625 0.671875 0.765625q2.5 0.28125 5.5625 0.28125l12.09375 0q1.25 0 1.828125 -0.953125q0.484375 -0.765625 1.34375 -2.015625q0.875 -1.25 1.25 -1.921875q0.484375 -0.578125 0.96875 -0.578125q0.46875 0 0.859375 0.296875q1.34375 0.953125 3.40625 2.921875q2.0625 1.96875 3.015625 3.21875q0.296875 0.375 0.296875 0.859375q0 1.0625 -0.859375 1.0625l-9.03125 0q-0.671875 0 -1.203125 0.484375q-0.53125 0.46875 -0.53125 1.234375l0 4.703125q0 0.671875 0.53125 1.203125q0.53125 0.53125 1.203125 0.53125l6.53125 0q0.765625 0 1.25 -0.671875q0.28125 -0.484375 0.65625 -1.15625q0.390625 -0.671875 0.59375 -1.15625q0.46875 -0.46875 0.953125 -0.46875q0.765625 0 2.6875 0.765625q1.921875 0.765625 4.03125 1.734375q2.109375 0.953125 3.359375 1.53125q0.859375 0.375 0.859375 1.4375q0 1.25 -0.953125 1.53125q-0.09375 0.09375 -0.296875 0.15625q-0.1875 0.046875 -0.375 0.234375q-1.25 0.953125 -1.25 2.875q0 1.4375 0.09375 3.703125q0.09375 2.25 0.140625 4.65625q0.0625 2.390625 0.15625 4.171875q0.09375 1.78125 0.09375 2.15625q0 0.96875 -1.34375 1.640625q-1.34375 0.671875 -3.359375 1.0625q-2.015625 0.375 -3.9375 0.375q-2.3125 0 -2.3125 -2.109375l0 -1.453125q0 -0.765625 -0.484375 -1.234375q-0.46875 -0.484375 -1.234375 -0.484375l-5.671875 0q-0.5625 0 -0.859375 0.53125q-0.28125 0.515625 0.09375 1.0q2.21875 3.359375 6.1875 6.09375q3.984375 2.734375 9.03125 4.515625q5.046875 1.78125 10.328125 2.640625q0.46875 0.09375 0.609375 0.53125q0.15625 0.4375 -0.328125 0.71875q-2.59375 1.921875 -4.46875 4.515625q-1.875 2.59375 -2.921875 5.078125q-0.296875 0.96875 -1.4375 0.96875q-0.390625 0 -0.765625 -0.203125q-6.734375 -3.359375 -11.578125 -9.0625q-4.84375 -5.71875 -6.859375 -12.53125q-0.09375 -0.484375 -0.578125 -0.484375q-0.484375 0 -0.765625 0.484375q-2.3125 7.390625 -7.015625 11.8125q-4.703125 4.40625 -11.28125 6.859375q-6.5625 2.453125 -14.640625 3.984375l-0.1875 0q-0.765625 0 -0.953125 -0.765625q-0.09375 -0.09375 -0.09375 -0.390625q0 -0.578125 0.765625 -0.859375q6.234375 -2.015625 11.078125 -4.609375q4.859375 -2.59375 8.21875 -7.046875q3.359375 -4.46875 4.890625 -12.0625l0 -0.28125q0 -1.4375 -1.4375 -1.4375l-3.359375 0q-0.671875 0 -1.203125 0.484375q-0.53125 0.46875 -0.53125 1.234375l0 2.03125q0 0.953125 -1.34375 1.625q-1.34375 0.671875 -3.3125 1.0625q-1.96875 0.375 -3.984375 0.375q-2.203125 0 -2.203125 -2.109375q0 -0.484375 0.046875 -2.34375q0.046875 -1.875 0.140625 -4.46875q0.09375 -2.59375 0.203125 -5.09375q0 -0.484375 -0.4375 -0.671875q-0.4375 -0.1875 -0.71875 0.1875q-1.734375 1.921875 -3.9375 1.921875q-1.4375 0 -2.546875 -0.859375q-1.109375 -0.859375 -1.296875 -2.59375q-0.09375 -2.203125 -0.4375 -4.265625q-0.328125 -2.0625 -1.09375 -3.796875q-0.09375 -0.390625 -0.671875 -0.390625q-0.671875 0 -0.671875 0.671875l0 41.953125q0 1.546875 -2.40625 2.5q-2.390625 0.96875 -5.5625 0.96875zm49.53125 -31.296875l6.4375 0q0.765625 0 1.234375 -0.53125q0.484375 -0.53125 0.484375 -1.203125l0 -9.984375q0 -0.765625 -0.484375 -1.25q-0.46875 -0.484375 -1.234375 -0.484375l-5.859375 0q-0.671875 0 -1.203125 0.484375q-0.53125 0.484375 -0.53125 1.25l0 1.921875q0 2.109375 -0.09375 4.125q-0.09375 2.015625 -0.28125 3.9375l0 0.1875q0 0.578125 0.421875 1.0625q0.4375 0.484375 1.109375 0.484375zm-17.46875 0l3.640625 0q1.734375 0 1.921875 -1.734375q0.203125 -1.921875 0.296875 -3.9375q0.09375 -2.015625 0.09375 -4.125l0 -1.921875q0 -0.765625 -0.484375 -1.25q-0.484375 -0.484375 -1.25 -0.484375l-4.21875 0q-0.671875 0 -1.25 0.484375q-0.578125 0.484375 -0.578125 1.25l0 9.984375q0 1.734375 1.828125 1.734375zm52.421753 31.1875q-0.203125 0.109375 -0.484375 0.109375q-0.578125 0 -0.859375 -0.484375q-0.203125 -0.1875 -0.203125 -0.578125q0 -0.484375 0.390625 -0.765625q8.734375 -6.8125 12.859375 -17.375q4.125 -10.5625 4.796875 -24.203125q0 -2.390625 -0.28125 -3.359375q-0.09375 -0.671875 0.09375 -1.140625q0.296875 -0.484375 1.25 -0.296875q1.4375 0.203125 4.21875 0.921875q2.78125 0.71875 5.5625 1.53125q2.796875 0.8125 4.046875 1.390625q0.859375 0.28125 0.859375 1.25q0 1.53125 -1.53125 1.34375l-0.390625 0q-1.25 0 -1.53125 1.53125q-0.578125 3.265625 -1.390625 6.296875q-0.8125 3.015625 -1.875 5.796875q-0.28125 0.671875 -0.28125 1.546875q0 0.953125 0.46875 1.71875q1.640625 3.171875 3.984375 5.28125q2.359375 2.109375 5.8125 3.453125q0.1875 0.09375 0.484375 0.09375q1.140625 0 1.140625 -1.234375l0 -33.796875q0 -0.765625 -0.484375 -1.25q-0.46875 -0.484375 -1.234375 -0.484375l-11.8125 0q-2.6875 0 -5.0 0.109375q-2.296875 0.09375 -3.828125 0.1875l-0.1875 0q-1.546875 0 -2.03125 -1.546875l-0.1875 -0.765625l0 -0.28125q0 -0.484375 0.375 -0.859375q0.390625 -0.390625 0.875 -0.296875q1.734375 0.09375 4.46875 0.34375q2.734375 0.234375 5.421875 0.234375l33.40625 0q1.4375 0 2.296875 -0.953125q0.390625 -0.578125 1.203125 -1.625q0.828125 -1.0625 1.640625 -2.171875q0.8125 -1.109375 1.203125 -1.59375q0.09375 -0.1875 0.234375 -0.28125q0.140625 -0.09375 0.234375 -0.1875q1.15625 -0.671875 1.734375 -2.21875q0.375 -1.046875 0.765625 -2.203125q0.390625 -1.15625 0.765625 -2.109375q0.09375 -0.1875 0.09375 -0.484375q0 -1.25 -1.25 -1.25l-48.765625 0q-0.671875 0 -1.203125 0.484375q-0.515625 0.484375 -0.515625 1.25q0 5.65625 -2.40625 9.640625q-2.40625 3.984375 -6.90625 3.984375q-3.5625 0 -5.34375 -2.0625q-1.765625 -2.0625 -1.765625 -4.5625q0 -1.71875 0.859375 -3.296875q0.875 -1.59375 2.59375 -2.546875q4.03125 -2.21875 6.09375 -4.609375q2.0625 -2.40625 2.453125 -7.390625q0.1875 -0.875 0.953125 -1.0625l0.203125 0q0.765625 0 1.046875 0.671875q0.484375 1.25 0.859375 2.453125q0.390625 1.203125 0.6875 2.4375q0.28125 1.734375 2.109375 1.734375l18.328125 0q0.765625 0 1.25 -0.53125q0.484375 -0.53125 0.484375 -1.203125l0 -4.703125q0 -4.125 -0.671875 -5.078125q-0.390625 -0.671875 -0.09375 -1.25q0.375 -0.578125 1.046875 -0.578125q1.0625 0 3.03125 0.203125q1.96875 0.1875 4.171875 0.421875q2.203125 0.234375 4.125 0.53125q1.921875 0.28125 2.890625 0.46875q1.140625 0.390625 1.140625 1.546875q0 1.53125 -1.53125 1.71875q-1.046875 0.109375 -1.4375 0.59375q-0.390625 0.46875 -0.390625 1.53125l0 4.59375q0 0.671875 0.53125 1.203125q0.53125 0.53125 1.203125 0.53125l15.640625 0q0.78125 0 1.0625 -0.140625q0.28125 -0.140625 0.671875 -0.71875q0.390625 -0.671875 0.953125 -1.78125q0.578125 -1.109375 0.96875 -1.671875q0.578125 -0.96875 1.25 -0.96875q0.46875 0 1.140625 0.296875q1.546875 0.5625 4.078125 2.109375q2.546875 1.53125 5.046875 3.21875q2.5 1.671875 3.84375 2.828125q0.859375 0.671875 0.859375 2.015625q0 0.28125 -0.1875 0.859375q-0.953125 1.34375 -2.78125 1.25q-1.828125 0 -4.03125 0.28125q-2.40625 0.390625 -5.1875 1.359375q-2.78125 0.953125 -5.46875 2.296875q-0.578125 0.28125 -0.578125 0.859375q0 0.578125 0.484375 0.875q1.8125 1.234375 3.59375 2.828125q1.78125 1.578125 2.640625 2.640625q0.390625 0.46875 0.390625 1.140625q0 1.25 -1.0625 1.25l-23.609375 0q-0.671875 0 -1.203125 0.484375q-0.53125 0.484375 -0.53125 1.25l0 14.6875q0 0.671875 0.53125 1.203125q0.53125 0.53125 1.203125 0.53125l7.765625 0q0.859375 0 1.34375 -0.140625q0.484375 -0.15625 0.96875 -0.734375q0.375 -0.578125 1.1875 -1.671875q0.828125 -1.109375 1.640625 -2.203125q0.8125 -1.109375 1.203125 -1.5q0.578125 -0.765625 1.25 -0.765625q0.375 0 0.953125 0.28125q1.34375 0.578125 3.265625 1.921875q1.921875 1.34375 3.640625 2.796875q1.734375 1.4375 2.5 2.484375q0.390625 0.484375 0.390625 1.25q0 1.25 -1.0625 1.25l-25.046875 0q-0.671875 0 -1.203125 0.484375q-0.53125 0.46875 -0.53125 1.25l0 14.578125q0 0.671875 0.53125 1.25q0.53125 0.578125 1.203125 0.671875q5.46875 0.296875 12.375 0.296875q7.109375 0 13.109375 -0.578125q6.0 -0.578125 9.265625 -1.0625l0.09375 0q0.484375 0 0.671875 0.390625q0.1875 0.375 -0.09375 0.765625q-2.125 2.59375 -3.65625 5.375q-1.53125 2.78125 -2.109375 5.28125q-0.484375 1.625 -2.015625 1.625l-15.265625 0q-11.8125 0 -19.59375 -2.453125q-7.765625 -2.4375 -12.421875 -6.9375q-4.65625 -4.515625 -7.15625 -10.46875q-0.09375 -0.484375 -0.671875 -0.484375q-0.46875 0 -0.765625 0.390625q-3.84375 7.09375 -9.515625 12.328125q-5.65625 5.234375 -12.84375 8.875z" fill-rule="nonzero"/><path fill="#000000" fill-opacity="0.0" d="m94.48819 394.01575l771.0237 0l0 45.35434l-771.0237 0z" fill-rule="evenodd"/><path fill="#595959" d="m341.3317 428.5723q-2.53125 0 -3.953125 -1.296875q-1.421875 -1.296875 -1.421875 -3.25q0 -1.125 0.578125 -1.921875q0.59375 -0.796875 1.78125 -0.796875q0.9375 0 1.546875 0.609375q0.625 0.59375 0.625 1.5q0 0.640625 -0.296875 0.9375q-0.296875 0.28125 -0.6875 0.421875q-0.390625 0.140625 -0.6875 0.328125q-0.296875 0.171875 -0.296875 0.578125q0 0.609375 0.6875 1.03125q0.6875 0.40625 1.859375 0.40625q1.921875 0 2.703125 -1.359375q0.796875 -1.359375 0.796875 -4.046875l0 -13.953125q0 -0.953125 -0.53125 -1.4375q-0.53125 -0.484375 -1.90625 -0.484375q-0.484375 0 -0.484375 -0.40625q0 -0.484375 0.484375 -0.484375q0.125 0 0.671875 0.015625q0.546875 0.015625 1.265625 0.03125q0.71875 0.015625 1.375 0.03125q0.65625 0.015625 1.03125 0.015625q0.390625 0 1.0625 -0.015625q0.671875 -0.015625 1.40625 -0.03125q0.734375 -0.015625 1.296875 -0.03125q0.5625 -0.015625 0.6875 -0.015625q0.421875 0 0.421875 0.484375q0 0.125 -0.109375 0.265625q-0.09375 0.140625 -0.3125 0.140625q-1.375 0 -1.9375 0.46875q-0.5625 0.46875 -0.5625 1.453125l0 13.796875q0 2.46875 -0.90625 4.015625q-0.90625 1.546875 -2.515625 2.28125q-1.59375 0.71875 -3.671875 0.71875zm23.391663 0.03125q-3.109375 0 -5.5 -1.5q-2.375 -1.515625 -3.71875 -4.21875q-1.34375 -2.703125 -1.34375 -6.28125q0 -3.65625 1.40625 -6.34375q1.40625 -2.6875 3.78125 -4.171875q2.390625 -1.484375 5.375 -1.484375q2.96875 0 5.34375 1.484375q2.390625 1.484375 3.796875 4.171875q1.421875 2.6875 1.421875 6.34375q0 3.578125 -1.359375 6.28125q-1.359375 2.703125 -3.734375 4.21875q-2.375 1.5 -5.46875 1.5zm0 -1.1875q1.71875 0 3.09375 -1.0q1.375 -1.015625 2.171875 -3.375q0.8125 -2.375 0.8125 -6.4375q0 -4.109375 -0.8125 -6.46875q-0.796875 -2.375 -2.171875 -3.390625q-1.375 -1.03125 -3.09375 -1.03125q-1.734375 0 -3.109375 1.03125q-1.375 1.015625 -2.171875 3.390625q-0.796875 2.359375 -0.796875 6.46875q0 4.0625 0.796875 6.4375q0.796875 2.359375 2.171875 3.375q1.375 1.0 3.109375 1.0zm18.880432 1.15625q-2.53125 0 -3.953125 -1.296875q-1.421875 -1.296875 -1.421875 -3.25q0 -1.125 0.578125 -1.921875q0.59375 -0.796875 1.78125 -0.796875q0.9375 0 1.546875 0.609375q0.625 0.59375 0.625 1.5q0 0.640625 -0.296875 0.9375q-0.296875 0.28125 -0.6875 0.421875q-0.390625 0.140625 -0.6875 0.328125q-0.296875 0.171875 -0.296875 0.578125q0 0.609375 0.6875 1.03125q0.6875 0.40625 1.859375 0.40625q1.921875 0 2.703125 -1.359375q0.796875 -1.359375 0.796875 -4.046875l0 -13.953125q0 -0.953125 -0.53125 -1.4375q-0.53125 -0.484375 -1.90625 -0.484375q-0.484375 0 -0.484375 -0.40625q0 -0.484375 0.484375 -0.484375q0.125 0 0.671875 0.015625q0.546875 0.015625 1.265625 0.03125q0.71875 0.015625 1.375 0.03125q0.65625 0.015625 1.03125 0.015625q0.390625 0 1.0625 -0.015625q0.671875 -0.015625 1.40625 -0.03125q0.734375 -0.015625 1.296875 -0.03125q0.5625 -0.015625 0.6875 -0.015625q0.421875 0 0.421875 0.484375q0 0.125 -0.109375 0.265625q-0.09375 0.140625 -0.3125 0.140625q-1.375 0 -1.9375 0.46875q-0.5625 0.46875 -0.5625 1.453125l0 13.796875q0 2.46875 -0.90625 4.015625q-0.90625 1.546875 -2.515625 2.28125q-1.59375 0.71875 -3.671875 0.71875zm23.391663 0.03125q-3.109375 0 -5.5 -1.5q-2.375 -1.515625 -3.71875 -4.21875q-1.34375 -2.703125 -1.34375 -6.28125q0 -3.65625 1.40625 -6.34375q1.40625 -2.6875 3.78125 -4.171875q2.390625 -1.484375 5.375 -1.484375q2.96875 0 5.34375 1.484375q2.390625 1.484375 3.796875 4.171875q1.421875 2.6875 1.421875 6.34375q0 3.578125 -1.359375 6.28125q-1.359375 2.703125 -3.734375 4.21875q-2.375 1.5 -5.46875 1.5zm0 -1.1875q1.71875 0 3.09375 -1.0q1.375 -1.015625 2.171875 -3.375q0.8125 -2.375 0.8125 -6.4375q0 -4.109375 -0.8125 -6.46875q-0.796875 -2.375 -2.171875 -3.390625q-1.375 -1.03125 -3.09375 -1.03125q-1.734375 0 -3.109375 1.03125q-1.375 1.015625 -2.171875 3.390625q-0.796875 2.359375 -0.796875 6.46875q0 4.0625 0.796875 6.4375q0.796875 2.359375 2.171875 3.375q1.375 1.0 3.109375 1.0zm22.934204 0.796875q-0.46875 0 -0.46875 -0.453125q0 -0.46875 0.46875 -0.46875q1.34375 0 1.984375 -0.15625q0.640625 -0.171875 0.84375 -0.59375q0.21875 -0.4375 0.21875 -1.203125l0 -17.546875q0 -0.703125 -0.1875 -1.109375q-0.171875 -0.421875 -0.828125 -0.59375q-0.65625 -0.171875 -2.09375 -0.171875q-0.15625 0 -0.28125 -0.140625q-0.125 -0.15625 -0.125 -0.3125q0 -0.484375 0.40625 -0.484375q0.296875 0 1.609375 0.046875q1.3125 0.046875 3.453125 0.046875q2.65625 0 4.5625 -0.046875q1.90625 -0.046875 3.046875 -0.046875q3.65625 0 5.671875 1.671875q2.015625 1.65625 2.015625 4.703125q0 2.96875 -1.6875 4.625q-1.671875 1.640625 -5.515625 1.640625l-5.765625 0q-0.375 0 -0.375 0.421875l0 7.296875q0 1.140625 0.703125 1.546875q0.703125 0.40625 2.8125 0.40625q0.421875 0 0.421875 0.46875q0 0.453125 -0.421875 0.453125q-0.3125 0 -1.78125 -0.046875q-1.453125 -0.046875 -3.6875 -0.046875q-2.140625 0 -3.40625 0.046875q-1.265625 0.046875 -1.59375 0.046875zm7.328125 -11.640625l4.203125 0q2.078125 0 3.21875 -1.4375q1.15625 -1.453125 1.15625 -3.78125q0 -1.484375 -0.4375 -2.6875q-0.421875 -1.21875 -1.5 -1.953125q-1.0625 -0.734375 -2.984375 -0.734375l-3.359375 0q-0.296875 0 -0.484375 0.109375q-0.1875 0.109375 -0.1875 0.5625l0 9.5q0 0.125 0.109375 0.28125q0.109375 0.140625 0.265625 0.140625zm26.153778 12.03125q-3.109375 0 -5.5 -1.5q-2.375 -1.515625 -3.71875 -4.21875q-1.34375 -2.703125 -1.34375 -6.28125q0 -3.65625 1.40625 -6.34375q1.40625 -2.6875 3.78125 -4.171875q2.390625 -1.484375 5.375 -1.484375q2.96875 0 5.34375 1.484375q2.390625 1.484375 3.796875 4.171875q1.421875 2.6875 1.421875 6.34375q0 3.578125 -1.359375 6.28125q-1.359375 2.703125 -3.734375 4.21875q-2.375 1.5 -5.46875 1.5zm0 -1.1875q1.71875 0 3.09375 -1.0q1.375 -1.015625 2.171875 -3.375q0.8125 -2.375 0.8125 -6.4375q0 -4.109375 -0.8125 -6.46875q-0.796875 -2.375 -2.171875 -3.390625q-1.375 -1.03125 -3.09375 -1.03125q-1.734375 0 -3.109375 1.03125q-1.375 1.015625 -2.171875 3.390625q-0.796875 2.359375 -0.796875 6.46875q0 4.0625 0.796875 6.4375q0.796875 2.359375 2.171875 3.375q1.375 1.0 3.109375 1.0zm23.317932 1.1875q-1.46875 0 -2.78125 -0.375q-1.3125 -0.375 -2.265625 -0.78125q-0.9375 -0.421875 -1.3125 -0.578125q-0.328125 -0.15625 -0.6875 -0.125q-0.34375 0.03125 -0.59375 0.3125q-0.03125 0.03125 -0.03125 0.03125q-0.03125 0 -0.140625 0.125q-0.109375 0.109375 -0.6875 0.640625q-0.328125 0.328125 -0.625 0.1875q-0.28125 -0.140625 -0.28125 -0.5l0 -6.234375q0 -0.390625 0.4375 -0.453125q0.4375 -0.0625 0.53125 0.21875q0.609375 1.796875 1.84375 3.203125q1.25 1.40625 3.0 2.203125q1.75 0.78125 3.765625 0.78125q1.65625 0 2.6875 -0.671875q1.046875 -0.671875 1.5625 -1.71875q0.515625 -1.046875 0.515625 -2.0625q0 -1.375 -0.765625 -2.21875q-0.765625 -0.859375 -2.015625 -1.375q-1.25 -0.53125 -2.78125 -0.90625q-1.515625 -0.390625 -3.015625 -0.84375q-1.5 -0.453125 -2.75 -1.171875q-1.25 -0.71875 -2.015625 -1.921875q-0.765625 -1.203125 -0.765625 -3.046875q0 -2.21875 1.0625 -3.703125q1.078125 -1.484375 2.859375 -2.25q1.796875 -0.765625 3.875 -0.765625q1.0625 0 2.140625 0.234375q1.09375 0.234375 2.015625 0.578125q0.9375 0.328125 1.421875 0.625q0.765625 0.40625 1.171875 0q0.328125 -0.328125 0.5 -0.4375q0.171875 -0.109375 0.171875 -0.109375q0.265625 -0.25 0.546875 -0.109375q0.296875 0.140625 0.296875 0.5625l0 5.46875q0 0.40625 -0.40625 0.515625q-0.390625 0.09375 -0.5625 -0.328125q-0.703125 -1.5625 -1.78125 -2.90625q-1.0625 -1.34375 -2.453125 -2.171875q-1.390625 -0.84375 -3.0625 -0.84375q-1.375 0 -2.4375 0.59375q-1.046875 0.59375 -1.65625 1.5625q-0.609375 0.953125 -0.609375 2.140625q0 1.34375 0.78125 2.140625q0.796875 0.796875 2.0625 1.28125q1.28125 0.46875 2.828125 0.828125q1.5625 0.359375 3.09375 0.796875q1.546875 0.421875 2.828125 1.15625q1.28125 0.734375 2.0625 1.96875q0.78125 1.234375 0.78125 3.21875q0 2.265625 -1.09375 3.90625q-1.078125 1.625 -2.96875 2.484375q-1.890625 0.84375 -4.296875 0.84375zm11.138519 -0.390625q-0.40625 0 -0.40625 -0.515625q0 -0.40625 0.40625 -0.40625q1.796875 0 2.421875 -0.453125q0.625 -0.453125 0.625 -1.5l0 -17.546875q0 -0.953125 -0.578125 -1.4375q-0.578125 -0.484375 -2.3125 -0.484375q-0.40625 0 -0.40625 -0.46875q0 -0.421875 0.40625 -0.421875q0.265625 0 2.453125 0.03125q2.1875 0.03125 6.453125 0.03125q4.03125 0 6.1093445 -0.03125q2.078125 -0.03125 2.375 -0.03125q0.734375 0 0.765625 0.734375q0.0625 0.296875 0.09375 0.953125q0.03125 0.65625 0.0625 1.390625q0.03125 0.734375 0.046875 1.3125q0.015625 0.578125 0.015625 0.734375q0 0.125 -0.0625 0.265625q-0.0625 0.140625 -0.28125 0.140625q-0.234375 0 -0.34375 -0.046875q-0.109375 -0.046875 -0.203125 -0.265625q-0.390625 -0.859375 -0.984375 -1.828125q-0.59375 -0.984375 -1.578125 -1.6875q-0.9687195 -0.703125 -2.5312195 -0.703125l-4.953125 0q-0.296875 0 -0.484375 0.125q-0.1875 0.125 -0.1875 0.546875l0 8.765625q0 0.125 0.125 0.265625q0.125 0.140625 0.28125 0.140625l1.640625 0q1.34375 0 2.046875 -0.5625q0.703125 -0.578125 1.03125 -1.34375q0.34375 -0.78125 0.5625 -1.3125q0.09375 -0.265625 0.171875 -0.375q0.09375 -0.109375 0.34375 -0.109375q0.21875 0 0.296875 0.15625q0.09375 0.15625 0.09375 0.328125q0 0.25 -0.03125 0.90625q-0.015625 0.65625 -0.03125 1.421875q-0.015625 0.765625 -0.015625 1.40625q0 0.609375 0.015625 1.46875q0.015625 0.84375 0.03125 1.53125q0.03125 0.6875 0.03125 0.90625q0 0.484375 -0.390625 0.484375q-0.359375 0 -0.484375 -0.421875q-0.21875 -0.609375 -0.578125 -1.421875q-0.34375 -0.8125 -1.046875 -1.4375q-0.703125 -0.625 -2.046875 -0.625l-1.640625 0q-0.40625 0 -0.40625 0.484375l0 9.25q0 0.59375 0.640625 0.59375l4.3125 0q1.53125 0 2.5937195 -0.546875q1.0625 -0.5625 1.75 -1.40625q0.6875 -0.859375 1.0625 -1.703125q0.390625 -0.84375 0.578125 -1.421875q0.09375 -0.296875 0.203125 -0.328125q0.125 -0.03125 0.34375 0q0.03125 0 0.03125 0q0.25 0.03125 0.28125 0.171875q0.03125 0.125 0.03125 0.28125q0 0.125 -0.015625 0.796875q-0.015625 0.671875 -0.03125 1.5625q-0.015625 0.875 -0.03125 1.625q-0.015625 0.75 -0.015625 1.046875q0 0.40625 -0.234375 0.703125q-0.234375 0.28125 -0.6875 0.28125q-0.21875 0 -1.0 -0.03125q-0.765625 -0.03125 -2.53125 -0.046875q-1.7499695 -0.015625 -4.9218445 -0.015625q-3.90625 0 -6.421875 0.046875q-2.5 0.046875 -2.859375 0.046875zm30.68808 0q-0.40625 0 -0.40625 -0.515625q0 -0.40625 0.40625 -0.40625q1.796875 0 2.421875 -0.453125q0.625 -0.453125 0.625 -1.5l0 -17.546875q0 -0.953125 -0.578125 -1.4375q-0.578125 -0.484375 -2.3125 -0.484375q-0.40625 0 -0.40625 -0.46875q0 -0.421875 0.40625 -0.421875q0.265625 0 2.453125 0.03125q2.1875 0.03125 6.453125 0.03125q4.03125 0 6.109375 -0.03125q2.078125 -0.03125 2.375 -0.03125q0.734375 0 0.765625 0.734375q0.0625 0.296875 0.09375 0.953125q0.03125 0.65625 0.0625 1.390625q0.03125 0.734375 0.046875 1.3125q0.015625 0.578125 0.015625 0.734375q0 0.125 -0.0625 0.265625q-0.0625 0.140625 -0.28125 0.140625q-0.234375 0 -0.34375 -0.046875q-0.109375 -0.046875 -0.203125 -0.265625q-0.390625 -0.859375 -0.984375 -1.828125q-0.59375 -0.984375 -1.578125 -1.6875q-0.96875 -0.703125 -2.53125 -0.703125l-4.953125 0q-0.296875 0 -0.484375 0.125q-0.1875 0.125 -0.1875 0.546875l0 8.765625q0 0.125 0.125 0.265625q0.125 0.140625 0.28125 0.140625l1.640625 0q1.34375 0 2.046875 -0.5625q0.703125 -0.578125 1.03125 -1.34375q0.34375 -0.78125 0.5625 -1.3125q0.09375 -0.265625 0.171875 -0.375q0.09375 -0.109375 0.34375 -0.109375q0.21875 0 0.296875 0.15625q0.09375 0.15625 0.09375 0.328125q0 0.25 -0.03125 0.90625q-0.015625 0.65625 -0.03125 1.421875q-0.015625 0.765625 -0.015625 1.40625q0 0.609375 0.015625 1.46875q0.015625 0.84375 0.03125 1.53125q0.03125 0.6875 0.03125 0.90625q0 0.484375 -0.390625 0.484375q-0.359375 0 -0.484375 -0.421875q-0.21875 -0.609375 -0.578125 -1.421875q-0.34375 -0.8125 -1.046875 -1.4375q-0.703125 -0.625 -2.046875 -0.625l-1.640625 0q-0.40625 0 -0.40625 0.484375l0 9.25q0 0.59375 0.640625 0.59375l4.3125 0q1.53125 0 2.59375 -0.546875q1.0625 -0.5625 1.75 -1.40625q0.6875 -0.859375 1.0625 -1.703125q0.390625 -0.84375 0.578125 -1.421875q0.09375 -0.296875 0.203125 -0.328125q0.125 -0.03125 0.34375 0q0.03125 0 0.03125 0q0.25 0.03125 0.28125 0.171875q0.03125 0.125 0.03125 0.28125q0 0.125 -0.015625 0.796875q-0.015625 0.671875 -0.03125 1.5625q-0.015625 0.875 -0.03125 1.625q-0.015625 0.75 -0.015625 1.046875q0 0.40625 -0.234375 0.703125q-0.234375 0.28125 -0.6875 0.28125q-0.21875 0 -1.0 -0.03125q-0.765625 -0.03125 -2.53125 -0.046875q-1.75 -0.015625 -4.921875 -0.015625q-3.90625 0 -6.421875 0.046875q-2.5 0.046875 -2.859375 0.046875zm21.212402 0q-0.4375 0 -0.4375 -0.421875q0 -0.5 0.4375 -0.5q0.9375 0 1.6875 -0.28125q0.75 -0.296875 1.53125 -1.0625q0.78125 -0.78125 1.78125 -2.25q0.1875 -0.28125 0.703125 -1.03125q0.515625 -0.75 1.140625 -1.6875q0.625 -0.953125 1.203125 -1.8125q0.59375 -0.875 0.921875 -1.390625q0.1875 -0.3125 -0.03125 -0.703125q-1.25 -2.203125 -2.328125 -3.953125q-1.0625 -1.765625 -1.734375 -2.84375q-0.671875 -1.078125 -0.765625 -1.234375q-0.90625 -1.53125 -1.703125 -2.328125q-0.796875 -0.796875 -1.796875 -0.796875q-0.1875 0 -0.296875 -0.140625q-0.109375 -0.15625 -0.109375 -0.3125q0 -0.484375 0.40625 -0.484375q0.234375 0 0.890625 0.03125q0.65625 0.03125 1.515625 0.046875q0.859375 0.015625 1.703125 0.015625q0.921875 0 1.796875 -0.015625q0.890625 -0.015625 1.5 -0.046875q0.625 -0.03125 0.796875 -0.03125q0.4375 0 0.4375 0.484375q0 0.15625 -0.109375 0.3125q-0.109375 0.140625 -0.328125 0.140625q-1.25 0 -1.421875 0.390625q-0.15625 0.375 0.328125 1.234375q0.09375 0.125 0.609375 0.984375q0.515625 0.84375 1.3125 2.140625q0.796875 1.296875 1.765625 2.796875q0.21875 0.34375 0.46875 0q0.765625 -1.15625 1.46875 -2.1875q0.71875 -1.046875 1.1875 -1.765625q0.484375 -0.71875 0.546875 -0.84375q0.578125 -1.03125 0.125 -1.890625q-0.4375 -0.859375 -1.78125 -0.859375q-0.234375 0 -0.359375 -0.140625q-0.125 -0.15625 -0.125 -0.3125q0 -0.484375 0.484375 -0.484375q0.28125 0 1.1875 0.046875q0.921875 0.046875 2.453125 0.046875q1.40625 0 2.234375 -0.046875q0.84375 -0.046875 1.15625 -0.046875q0.453125 0 0.453125 0.484375q0 0.15625 -0.125 0.3125q-0.109375 0.140625 -0.328125 0.140625q-1.078125 0 -2.140625 0.78125q-1.0625 0.78125 -1.890625 2.0625q-0.375 0.578125 -1.359375 2.109375q-0.96875 1.53125 -2.484375 3.75q-0.28125 0.40625 -0.03125 0.765625q1.15625 1.8125 2.1875 3.546875q1.046875 1.734375 1.890625 3.078125q0.859375 1.34375 1.296875 2.046875q0.875 1.28125 1.734375 2.265625q0.859375 0.96875 1.796875 0.96875q0.46875 0 0.46875 0.5q0 0.421875 -0.46875 0.421875q-0.328125 0 -1.484375 -0.03125q-1.140625 -0.03125 -2.359375 -0.03125q-0.9375 0 -1.90625 0.015625q-0.96875 0.015625 -1.6875 0.03125q-0.703125 0.015625 -0.859375 0.015625q-0.4375 0 -0.4375 -0.421875q0 -0.5 0.4375 -0.5q1.1875 0 1.359375 -0.421875q0.1875 -0.421875 -0.328125 -1.25q-0.484375 -0.828125 -1.125 -1.84375q-0.640625 -1.03125 -1.25 -2.015625q-0.609375 -1.0 -1.078125 -1.75q-0.453125 -0.75 -0.609375 -1.046875q-0.09375 -0.15625 -0.265625 -0.140625q-0.15625 0.015625 -0.25 0.140625q-1.09375 1.5625 -2.078125 3.0625q-0.96875 1.484375 -1.46875 2.25q-0.546875 0.828125 -0.390625 1.515625q0.15625 0.6875 0.734375 1.09375q0.578125 0.40625 1.3125 0.40625q0.484375 0 0.484375 0.5q0 0.421875 -0.484375 0.421875q-0.28125 0 -1.265625 -0.03125q-0.96875 -0.03125 -2.484375 -0.03125q-1.40625 0 -2.53125 0.03125q-1.109375 0.03125 -1.4375 0.03125zm23.264038 0q-0.40625 0 -0.40625 -0.421875q0 -0.5 0.40625 -0.5q1.125 0 1.765625 -0.40625q0.640625 -0.40625 1.15625 -1.515625q0.25 -0.515625 0.75 -1.734375q0.5 -1.21875 1.15625 -2.90625q0.65625 -1.703125 1.390625 -3.625q0.734375 -1.921875 1.46875 -3.828125q0.734375 -1.921875 1.359375 -3.5625q0.625 -1.65625 1.046875 -2.84375q0.4375 -1.1875 0.609375 -1.59375q0.15625 -0.421875 0.359375 -0.546875q0.203125 -0.125 0.71875 -0.125q0.515625 0 0.734375 0.125q0.234375 0.125 0.390625 0.546875q0.25 0.640625 0.8125 2.078125q0.5625 1.4375 1.296875 3.328125q0.734375 1.890625 1.53125 3.953125q0.8125 2.0625 1.5625 4.015625q0.75 1.953125 1.359375 3.53125q0.609375 1.578125 0.953125 2.453125q0.578125 1.46875 1.234375 2.0625q0.65625 0.59375 1.265625 0.59375q0.40625 0 0.40625 0.5q0 0.421875 -0.40625 0.421875q-0.328125 0 -1.328125 -0.015625q-0.984375 -0.015625 -2.640625 -0.015625q-1.375 0 -2.625 0.015625q-1.25 0.015625 -1.5625 0.015625q-0.421875 0 -0.421875 -0.421875q0 -0.5 0.421875 -0.5q1.015625 0 1.40625 -0.328125q0.40625 -0.34375 0.40625 -0.8125q0 -0.46875 -0.15625 -0.78125q-0.03125 -0.0625 -0.1875 -0.5625q-0.15625 -0.5 -0.40625 -1.21875q-0.234375 -0.71875 -0.5 -1.46875q-0.25 -0.75 -0.4375 -1.328125q-0.125 -0.359375 -0.265625 -0.421875q-0.125 -0.0625 -0.34375 -0.0625l-7.875 0q-0.15625 0 -0.25 0.03125q-0.09375 0.03125 -0.171875 0.265625q-0.15625 0.671875 -0.46875 1.578125q-0.296875 0.90625 -0.515625 1.765625q-0.21875 0.84375 -0.21875 1.390625q0 1.171875 0.578125 1.5625q0.59375 0.390625 1.65625 0.390625q0.421875 0 0.421875 0.5q0 0.421875 -0.421875 0.421875q-0.3125 0 -1.203125 -0.015625q-0.875 -0.015625 -2.28125 -0.015625q-1.25 0 -2.21875 0.015625q-0.953125 0.015625 -1.3125 0.015625zm6.890625 -8.953125l6.9375 0q0.125 0 0.265625 -0.046875q0.15625 -0.0625 0.0625 -0.375q-0.265625 -0.765625 -0.65625 -1.875q-0.375 -1.109375 -0.828125 -2.3125q-0.4375 -1.21875 -0.84375 -2.34375q-0.390625 -1.125 -0.703125 -1.953125q-0.296875 -0.828125 -0.390625 -1.109375q-0.078125 -0.171875 -0.1875 -0.203125q-0.109375 -0.03125 -0.171875 0.125q-0.0625 0.234375 -0.421875 1.109375q-0.34375 0.875 -0.84375 2.109375q-0.5 1.234375 -1.015625 2.53125q-0.5 1.296875 -0.90625 2.34375q-0.390625 1.03125 -0.5625 1.515625q-0.125 0.484375 0.265625 0.484375zm18.048523 8.953125q-0.421875 0 -0.421875 -0.515625q0 -0.40625 0.421875 -0.40625q1.34375 0 2.171875 -0.96875q0.828125 -0.984375 0.828125 -3.328125l0 -14.90625q0 -1.15625 -0.53125 -1.6875q-0.515625 -0.53125 -1.828125 -0.53125q-0.421875 0 -0.421875 -0.4375q0 -0.453125 0.421875 -0.453125q0.28125 0 1.96875 0.03125q1.703125 0.03125 4.046875 0.03125q1.078125 0 1.375 0.828125q0.0625 0.203125 0.4375 1.296875q0.390625 1.078125 0.953125 2.671875q0.5625 1.578125 1.1875 3.328125q0.625 1.734375 1.171875 3.3125q0.5625 1.5625 0.9375 2.609375q0.390625 1.03125 0.4375 1.15625q0.34375 1.0 0.828125 -0.1875q0.0625 -0.203125 0.421875 -1.203125q0.375 -1.015625 0.90625 -2.53125q0.53125 -1.515625 1.09375 -3.203125q0.578125 -1.703125 1.109375 -3.21875q0.53125 -1.53125 0.890625 -2.59375q0.375 -1.078125 0.4375 -1.296875q0.28125 -0.96875 1.40625 -0.96875q2.34375 0 3.90625 -0.03125q1.5625 -0.03125 1.796875 -0.03125q0.40625 0 0.40625 0.453125q0 0.4375 -0.40625 0.4375q-1.1875 0 -1.65625 0.5q-0.453125 0.5 -0.453125 1.421875l0 17.453125q0 1.015625 0.375 1.53125q0.390625 0.515625 1.53125 0.515625q0.421875 0 0.421875 0.40625q0 0.515625 -0.421875 0.515625q-0.3125 0 -1.265625 -0.046875q-0.9375 -0.046875 -2.40625 -0.046875q-0.921875 0 -1.9375 0.015625q-1.015625 0.015625 -1.75 0.046875q-0.734375 0.03125 -0.953125 0.03125q-0.484375 0 -0.484375 -0.515625q0 -0.40625 0.484375 -0.40625q1.46875 0 2.015625 -0.46875q0.546875 -0.46875 0.546875 -1.578125l0 -18.015625q0 -0.234375 -0.171875 -0.234375q-0.15625 0 -0.21875 0.125q-0.03125 0.109375 -0.4375 1.234375q-0.390625 1.109375 -1.015625 2.90625q-0.625 1.78125 -1.359375 3.921875q-0.734375 2.125 -1.46875 4.234375q-0.734375 2.109375 -1.34375 3.875q-0.609375 1.75 -0.984375 2.84375q-0.359375 1.09375 -0.359375 1.09375q-0.09375 0.25 -0.1875 0.296875q-0.078125 0.046875 -0.234375 0.046875q-0.25 0 -0.375 -0.28125q-0.046875 -0.0625 -0.453125 -1.125q-0.390625 -1.0625 -1.046875 -2.78125q-0.65625 -1.734375 -1.421875 -3.78125q-0.765625 -2.046875 -1.546875 -4.09375q-0.78125 -2.046875 -1.4375 -3.75q-0.65625 -1.71875 -1.0625 -2.78125q-0.40625 -1.078125 -0.4375 -1.125q-0.03125 -0.09375 -0.140625 -0.0625q-0.109375 0.03125 -0.109375 0.171875l0 15.0q0 2.4375 0.953125 3.390625q0.96875 0.9375 2.25 0.9375q0.484375 0 0.484375 0.40625q0 0.515625 -0.484375 0.515625q-0.328125 0 -1.3125 -0.046875q-0.96875 -0.046875 -2.375 -0.046875q-1.65625 0 -2.515625 0.046875q-0.84375 0.046875 -1.1875 0.046875z" fill-rule="nonzero"/></g></svg>