<svg viewBox="0 0 960 580" fill="none" stroke-linecap="square" stroke-miterlimit="10" xmlns="http://www.w3.org/2000/svg"><clipPath id="a"><path d="M0 0h960v720H0V0z"/></clipPath><g clip-path="url(#a)"><path fill="none" d="M0 0h960v720H0z"/><path fill="#f2f3fb" d="M90.709 307.087c0-14.612 11.845-26.457 26.457-26.457h725.668a26.457 26.457 0 0126.457 26.457v105.826c0 14.612-11.845 26.457-26.457 26.457H117.166c-14.612 0-26.457-11.845-26.457-26.457z" fill-rule="evenodd"/><path fill="none" d="M94.49 280.63h771.025v113.386H94.49z"/><path fill="#595959" d="M128.362 376.79q-1.25.968-2.89.968-1.829 0-3.641-1.25-3.563-2.313-5.625-6.14-2.063-3.845-2.063-7.11 0-2.016.875-3.453.47-.672 1.141-.578.766 0 1.063.765.28 1.531 1.859 2.203 1.594.672 3.703.672 2.984 0 5.672-.86 5.078-1.64 10.844-4.421 5.765-2.781 11.656-6.328 5.906-3.563 11.375-7.485 5.484-3.937 9.937-7.828 4.47-3.89 7.25-7.437.672-.672 1.344-.203.766.297.39 1.25-4.796 8.172-11.718 16.281-6.906 8.11-15.64 15.219-8.735 7.093-19.11 12.375-2.297 1.156-3.797 1.828-1.484.672-2.625 1.531zm8.922-50.11q-1.437-2.313-4.031-4.563-2.594-2.25-5.625-3.969-3.016-1.734-5.797-2.406-.766-.297-.766-1.062 0-.86.766-1.157 1.922-.484 4.078-.718 2.156-.235 4.469-.235 4.797 0 9.25 1.157 4.469 1.14 6.578 3.828 1.156 1.343 1.687 2.734.532 1.39.532 2.734 0 2.797-1.875 4.813-1.875 2.016-4.282 2.016-2.875 0-4.984-3.172zM123.94 345.21q-.968-2.016-3.172-4.36-2.203-2.359-4.937-4.374-2.734-2.016-5.328-2.891-.766-.375-.672-1.14 0-.782.86-.97 1.343-.187 2.78-.328 1.438-.156 2.985-.156 3.547 0 7.094.735 3.562.718 6.39 2.203 2.828 1.484 4.172 3.89 1.25 2.11 1.25 4.22 0 2.874-1.969 4.796-1.968 1.922-4.359 1.922-1.453 0-2.797-.86-1.344-.875-2.297-2.687zm44.735-18.813q-1.532-2.796-3.75-5.53-2.203-2.735-5.282-5.032-.375-.297-.375-.766 0-.578.422-.906.438-.344.828-.25 4.516.281 8.016 1.578 3.5 1.297 5.234 4.078 1.141 1.828 1.141 3.563 0 2.11-1.25 3.453-1.234 1.344-2.578 1.344-1.547 0-2.406-1.532zm9.03-8.359q-2.124-2.297-4.952-4.312-2.828-2.032-6.188-3.375-.672-.375-.672-.954 0-1.062.954-1.25 1.156-.187 2.296-.28 1.157-.095 2.313-.095 2.781 0 5.375.672t4.422 2.203q1.156.954 1.625 2.016.484 1.063.484 2.11 0 1.734-1.062 3.03-1.047 1.298-2.39 1.298-1.25 0-2.204-1.063zm75.25 58.078q-1.046 0-1.921-.765-.86-.766-.86-2.985 0-.953-.765-.953-9.016 0-14.203.578-5.188.578-7.828 1.156-2.64.579-3.985.579-1.25 0-2.687-1.25-1.438-1.25-2.547-3.125-1.094-1.875-1.484-3.891v-.188q0-.671.578-1.046.578-.391 1.156-.016 1.438.875 3.25 1.062 1.828.188 4.61.094 2.015-.187 5.093-.281 3.078-.11 6.438-.25 3.359-.14 6.375-.188 3.03-.046 4.953-.046.578 0 1-.422.437-.438.437-.922 0-1.156.047-2.781.047-1.641.14-3.844 0-.969-.859-.969-6.921 0-11.39.344-4.453.328-7.14.812-2.688.485-4.173.828-1.484.329-2.36.329-1.25 0-2.593-1.157-1.344-1.156-2.406-2.875-1.047-1.734-1.531-3.453v-.203q0-.672.578-1.047.578-.39 1.156 0 1.063.578 2.734.719 1.688.14 4.375.047 1.344-.094 4.313-.188 2.984-.093 6.531-.187 3.547-.11 6.813-.203 3.265-.094 5.28-.188.97-.094 1.063-1.062.094-2.016.282-3.016.187-1.016.39-2.172v-.187q0-1.344-1.437-1.344-7.688 0-12.735.297-5.03.281-8.156.719-3.11.421-4.844.718-1.734.282-2.78.282-1.548 0-2.891-1.188-1.344-1.203-2.204-2.937-.859-1.735-1.156-3.36v-.187q0-.782.625-1.11.625-.343 1.203.141 1.063.672 2.5.922 1.438.234 4.125.234 1.922 0 4.938-.094 3.031-.093 6.39-.14 3.36-.063 6.235-.156 2.89-.094 4.515-.188 2.5-.187 4.125-.719 1.641-.53 2.5-1.875.672-.953 1.829-.953.578 0 1.156.281 1.343.672 3.922 2.22 2.593 1.53 4.609 3.155.969.766.969 1.829 0 .953-.86 1.53-1.25.97-1.78 2.126-.532 1.14-.907 2.875-.578 2.203-.969 5.469-.375 3.265-.625 6.921-.234 3.641-.328 7-.094 3.36-.094 5.75 0 1.922-2.031 3.516-2.016 1.578-4.703 1.578zm67.407.672q-1.25.969-2.89.969-1.829 0-3.641-1.25-3.563-2.313-5.625-6.14-2.063-3.845-2.063-7.11 0-2.016.875-3.453.47-.672 1.141-.578.766 0 1.062.765.282 1.531 1.86 2.203 1.594.672 3.703.672 2.984 0 5.672-.86 5.078-1.64 10.844-4.421 5.765-2.781 11.656-6.328 5.906-3.563 11.375-7.485 5.484-3.937 9.937-7.828 4.47-3.89 7.25-7.437.672-.672 1.344-.203.766.297.39 1.25-4.796 8.172-11.718 16.281-6.906 8.11-15.64 15.219-8.735 7.093-19.11 12.375-2.297 1.156-3.797 1.828-1.484.672-2.625 1.531zm8.922-50.11q-1.438-2.312-4.031-4.562-2.594-2.25-5.625-3.969-3.016-1.734-5.797-2.406-.766-.297-.766-1.062 0-.86.766-1.157 1.922-.484 4.078-.718 2.156-.235 4.469-.235 4.797 0 9.25 1.157 4.468 1.14 6.578 3.828 1.156 1.343 1.687 2.734.532 1.39.532 2.734 0 2.797-1.875 4.813-1.875 2.016-4.282 2.016-2.875 0-4.984-3.172zm-13.344 18.532q-.969-2.016-3.172-4.36-2.203-2.359-4.937-4.374-2.735-2.016-5.328-2.891-.766-.375-.672-1.14 0-.782.86-.97 1.343-.187 2.78-.328 1.438-.156 2.985-.156 3.547 0 7.094.735 3.562.718 6.39 2.203 2.828 1.484 4.172 3.89 1.25 2.11 1.25 4.22 0 2.874-1.969 4.796-1.968 1.922-4.359 1.922-1.453 0-2.797-.86-1.344-.875-2.297-2.687zm44.735-18.813q-1.532-2.796-3.75-5.53-2.204-2.735-5.282-5.032-.375-.297-.375-.766 0-.578.422-.906.438-.344.828-.25 4.516.281 8.016 1.578 3.5 1.297 5.234 4.078 1.141 1.828 1.141 3.563 0 2.11-1.25 3.453-1.234 1.344-2.578 1.344-1.547 0-2.406-1.532zm9.03-8.359q-2.124-2.297-4.952-4.312-2.828-2.032-6.188-3.375-.672-.375-.672-.954 0-1.062.953-1.25 1.157-.187 2.297-.28 1.157-.095 2.313-.095 2.781 0 5.375.672t4.422 2.203q1.156.954 1.625 2.016.484 1.063.484 2.11 0 1.734-1.062 3.03-1.047 1.298-2.391 1.298-1.25 0-2.203-1.063zm75.25 58.078q-1.046 0-1.921-.765-.86-.766-.86-2.985 0-.953-.765-.953-9.016 0-14.203.578-5.188.578-7.828 1.156-2.64.579-3.985.579-1.25 0-2.687-1.25-1.438-1.25-2.547-3.125-1.094-1.875-1.484-3.891v-.188q0-.671.578-1.046.578-.391 1.156-.016 1.437.875 3.25 1.062 1.828.188 4.61.094 2.015-.187 5.093-.281 3.078-.11 6.438-.25 3.359-.14 6.375-.188 3.03-.046 4.953-.046.578 0 1-.422.437-.438.437-.922 0-1.156.047-2.781.047-1.641.14-3.844 0-.969-.859-.969-6.922 0-11.39.344-4.453.328-7.14.812-2.688.485-4.173.828-1.484.329-2.36.329-1.25 0-2.593-1.157-1.344-1.156-2.406-2.875-1.047-1.734-1.531-3.453v-.203q0-.672.578-1.047.578-.39 1.156 0 1.062.578 2.734.719 1.688.14 4.375.047 1.344-.094 4.313-.188 2.984-.093 6.531-.187 3.547-.11 6.813-.203 3.265-.094 5.28-.188.97-.094 1.063-1.062.094-2.016.282-3.016.187-1.016.39-2.172v-.187q0-1.344-1.437-1.344-7.688 0-12.735.297-5.03.281-8.156.719-3.11.421-4.844.718-1.734.282-2.78.282-1.548 0-2.892-1.188-1.343-1.203-2.203-2.937-.86-1.735-1.156-3.36v-.187q0-.782.625-1.11.625-.343 1.203.141 1.063.672 2.5.922 1.438.234 4.125.234 1.922 0 4.938-.094 3.03-.093 6.39-.14 3.36-.063 6.235-.156 2.89-.094 4.515-.188 2.5-.187 4.125-.719 1.64-.53 2.5-1.875.672-.953 1.828-.953.579 0 1.157.281 1.343.672 3.922 2.22 2.593 1.53 4.609 3.155.969.766.969 1.829 0 .953-.86 1.53-1.25.97-1.78 2.126-.532 1.14-.907 2.875-.578 2.203-.969 5.469-.375 3.265-.625 6.921-.234 3.641-.328 7-.094 3.36-.094 5.75 0 1.922-2.031 3.516-2.016 1.578-4.703 1.578zm42.626 6.531h-.188q-1.531 0-2.015-1.53l-.188-.782-.094-.281q0-.485.422-.86.438-.39.922-.297 1.719.094 4.406.344 2.688.235 5.375.235h30.047q1.735 0 2.406-1.72 1.735-4.421 3.454-10.28 1.734-5.86 3.218-12.375 1.485-6.532 2.532-13.016 1.062-6.484 1.453-12.14.093-1.438.093-2.438 0-1.016-.093-1.688v-.968q0-.672.187-1.047.094-.39.672-.39.578 0 2.828.53 2.266.532 5.047 1.25 2.781.72 5.328 1.438 2.547.719 3.703 1.203.86.375.86 1.25 0 1.531-1.438 1.531-1.25-.094-1.875.438-.625.515-1.015 1.86-4.5 13.827-10.36 25.593-5.86 11.75-11.515 19.531-.204.39-.204.484 0 .954.97.954h18.14q.953 0 1.484-.188.531-.187 1.016-.86.578-.78 1.484-2.062.906-1.297 1.766-2.594.875-1.296 1.25-1.78.578-.673 1.36-.673.468 0 1.14.282 1.437.765 3.64 2.359 2.22 1.578 4.235 3.172 2.015 1.578 2.875 2.531.578.578.578 1.25 0 1.438-1.344 1.438h-73.828q-2.687 0-4.937.093-2.25.11-3.797.203zm1.343-60.296h-.187q-1.531 0-2.016-1.532l-.187-.765-.094-.282q0-.578.422-.953.437-.39.922-.297 1.719.188 4.406.391 2.688.188 5.375.188h21.031q.766 0 1.297-.532.531-.53.531-1.203v-7.781q0-3.36-.343-5.469-.328-2.11-.813-2.969-.39-.671-.094-1.156.188-.484 1.047-.484 1.063 0 3.22.25 2.155.234 4.702.578 2.547.328 4.703.672 2.172.328 3.125.515 1.157.391 1.157 1.547 0 1.532-1.547 1.72-2.11.296-2.11 2.108v10.47q0 .671.532 1.202.53.532 1.203.532h15.36q1.827 0 2.5-1.157l3.827-5.375q.485-.765 1.344-.765.578 0 1.25.281 1.547.766 3.562 2.156 2.016 1.39 3.782 2.797 1.781 1.39 2.547 2.25.578.578.578 1.344 0 1.344-1.25 1.344h-71.14q-2.595 0-4.892.14-2.296.14-3.75.235zm22.766 50.125q-2.125 0-3.61-1.438-1.484-1.453-1.39-4.14.094-1.141.094-2.297v-2.313q0-10.078-2.266-18.61-2.25-8.546-7.328-14.89-.484-.766 0-1.437.672-.672 1.438-.188 6.328 4.125 11.125 9.125 4.812 4.984 7.593 11.281 2.782 6.282 2.97 14.438.108 5.187-2.642 7.828-2.734 2.64-5.984 2.64zm107.031 10.453q-.86 0-1.062-.86v-.187q0-.766.875-.969 7.484-1.25 13.531-4.312 6.047-3.079 9.64-7.532 3.61-4.468 3.61-9.843 0-3.938-1.875-6.766-1.875-2.844-5-4.375-3.11-1.531-6.86-1.531-3.937 0-7.39 1.437-3.453 1.438-6 3.61-2.547 2.156-3.687 4.546-.875 1.735-2.454 2.704-1.578.953-3.218.953-1.72 0-3.36-1.063-1.828-1.344-2.734-2.734-.906-1.39-.906-3.5 0-1.344.28-2.89.58-3.36 1.58-8.579 1.015-5.234 1.968-11.094v-.297q0-1.437-1.438-1.437h-2.297q-1.156 0-2.203-.094-5-.281-7.547-2.625-2.546-2.36-3.015-7.062v-.203q0-.672.672-.954.093-.093.375-.093.578 0 .875.468 1.047 1.454 3.062 1.985 2.016.515 5.094.703.766 0 1.578.062.813.047 1.594.047.765 0 1.625-.047.86-.062 1.625-.062 1.828 0 2.031-1.813.375-1.921.656-3.796.297-1.875.578-3.594.11-.672.157-1.25t.047-1.063q0-3.172-1.735-4.218-.484-.297-.484-.97 0-.952.969-.952 1.921 0 3.984.718 2.062.72 4.36 1.97 3.562 2.015 3.359 4.984 0 1.734 1.547 2.312 1.53.672 3.062 1.156 1.547.47 2.594.578 3.844.282 5.61 1.766 1.78 1.484 1.78 3.219 0 1.25-.859 2.36-.86 1.093-2.594 1.859-3.265 1.25-7.015 2.218-3.735.953-7.672 1.532-1.735.187-2.016 1.921-.953 4.407-1.687 8.782-.72 4.375-.907 7.156-.093 2.39 1.735 2.39 1.14 0 2.11-.671 1.827-1.14 4.468-2.578 2.64-1.454 6.14-2.5 3.5-1.063 7.829-1.063 6.422 0 11.562 2.063 5.14 2.062 8.11 6.156 2.984 4.078 2.984 10.312 0 7-4.656 12.141-4.657 5.14-13.11 8.062-8.453 2.938-19.875 3.407zm-.765-64.125q.39-.188.718-.282.344-.093.72-.203 1.062-.468 1.062-1.234 0-.672-.672-1.25l-.485-.484q-.39-.282-.859-.282-.969 0-1.25.86-.094.375-.25.765-.14.391-.328.86v.297q0 .468.375.765.39.281.969.188zm70.656 67.593q-2.5 0-2.5-2.312 0-.484.094-3.125.093-2.64.28-6.766.204-4.125.345-8.968.14-4.86.25-9.75 0-.485-.485-.625-.484-.141-.765.343-2.11 3.547-4.422 6.672-2.297 3.11-4.703 5.906-.485.672-1.344.188-.766-.484-.39-1.344 2.406-4.797 4.609-11.125 2.218-6.344 3.984-13.734 1.781-7.406 2.734-15.172l.11-.188q0-.578-.438-1.062-.437-.484-1.203-.484h-.484q-1.438 0-2.875.046-1.438.047-2.5.141h-.188q-1.531 0-2.015-1.531l-.094-.375-.094-.297q0-.484.422-.906.438-.438 1.016-.344 1.25.094 2.968.25 1.735.14 3.36.14h1.156q1.828 0 1.828-1.734V309.79q0-4.234-.25-6.203-.234-1.969-.719-3.016-.187-.484.11-.765.281-.297.765-.297 1.25 0 3.594.39 2.36.375 4.75.813 2.406.437 3.656.812.86.297.86 1.25 0 1.344-1.156 1.532-1.25.203-1.782.687-.515.469-.515 2.11v13.437q0 .469.328.766.344.281.719.281.484 0 .78-.375l.095-.094q.468-.781 1.53-2.312 1.063-1.532 1.735-2.297.281-.485.953-.485.672 0 1.157.391 1.625 1.234 3.546 3.203 1.922 1.969 2.875 3.219.391.39.391.969 0 1.047-.953 1.047h-11.328q-1.828 0-1.828 1.828v7.11q0 1.624 1.718 2.015 2.891.562 5.235 1.812 2.36 1.25 3.61 3.172.187.297.577.297.672 0 .672-.672-.11-1.64-.203-2.734-.094-1.11-.281-1.782-.094-.39.094-.765.093-.297.859-.11 1.922.391 4.937 1.454 3.032 1.046 5.25 1.921.766.282 1.625.282h4.22q.765 0 1.25-.532.484-.53.484-1.203v-4.703q0-.765-.485-1.234-.484-.485-1.25-.485h-1.344q-2.109 0-3.796.047-1.672.047-2.72.141h-.202q-1.141 0-1.438-1.156-.094-.469-.578-.61-.469-.156-.86.141-2.312 1.906-4.671 3.594-2.344 1.672-4.828 3.125-.203.093-.578.093-.485 0-.766-.39-.297-.281-.297-.672 0-.484.39-.766 2.97-2.687 5.938-6.578 2.985-3.89 5.578-8.344 2.594-4.468 4.469-8.921 1.875-4.47 2.547-8.313.281-1.64.281-2.219.188-.672.281-.765.204-.282.97-.282 1.624.282 4.405 1 2.797.72 5.532 1.594 2.734.86 4.078 1.438.953.39.765 1.343 0 .188-.046.438-.047.234-.047.422 0 1.156.672 1.922 2.875 3.656 7.234 6.687 4.375 3.016 9.266 5.172 4.906 2.156 9.125 3.406.484.094.625.625.156.532-.329.813-2.109 1.531-4.03 3.89-1.923 2.36-3.079 4.844-.281.875-1.344.875-.578 0-.765-.203-4.125-2.781-8.11-7.047-3.984-4.281-7.11-9.312-3.124-5.047-4.562-10.125-.093-.672-.953-.672-.578 0-.968.469l-.094.093q-3.156 5.282-7.25 10.375-4.078 5.094-8.781 9.313-.188.187-.188.578 0 .766.672.766 2.5.28 5.562.28h12.094q1.25 0 1.828-.952.485-.766 1.344-2.016.875-1.25 1.25-1.922.484-.578.969-.578.469 0 .86.297 1.343.953 3.405 2.922 2.063 1.969 3.016 3.219.297.375.297.859 0 1.062-.86 1.062h-9.03q-.673 0-1.204.485-.531.469-.531 1.234v4.703q0 .672.531 1.203.531.532 1.203.532h6.532q.765 0 1.25-.672.28-.485.656-1.156.39-.672.594-1.157.468-.468.953-.468.765 0 2.687.765 1.922.766 4.031 1.735 2.11.953 3.36 1.53.86.376.86 1.438 0 1.25-.954 1.532-.094.093-.297.156-.187.047-.375.234-1.25.953-1.25 2.875 0 1.438.094 3.703.094 2.25.14 4.657.063 2.39.157 4.171.094 1.782.094 2.157 0 .968-1.344 1.64-1.344.672-3.36 1.063-2.015.375-3.937.375-2.313 0-2.313-2.11v-1.453q0-.765-.484-1.234-.469-.484-1.234-.484h-5.672q-.563 0-.86.53-.28.516.094 1 2.219 3.36 6.188 6.095 3.984 2.734 9.03 4.515 5.048 1.781 10.329 2.64.469.095.61.532.156.438-.329.719-2.593 1.922-4.468 4.515-1.875 2.594-2.922 5.079-.297.968-1.438.968-.39 0-.765-.203-6.735-3.36-11.579-9.062-4.843-5.719-6.859-12.532-.094-.484-.578-.484t-.766.484q-2.312 7.391-7.015 11.813-4.703 4.406-11.282 6.86-6.562 2.452-14.64 3.984h-.188q-.765 0-.953-.766-.094-.094-.094-.39 0-.579.766-.86 6.234-2.016 11.078-4.61 4.86-2.593 8.219-7.046 3.36-4.469 4.89-12.063v-.28q0-1.438-1.437-1.438h-3.36q-.671 0-1.202.484-.532.469-.532 1.234v2.032q0 .953-1.343 1.625-1.344.671-3.313 1.062-1.969.375-3.984.375-2.203 0-2.203-2.11 0-.484.046-2.343.047-1.875.141-4.469.094-2.594.203-5.094 0-.484-.437-.671-.438-.188-.72.187-1.733 1.922-3.937 1.922-1.437 0-2.546-.86-1.11-.859-1.297-2.593-.094-2.203-.438-4.266-.328-2.062-1.094-3.797-.093-.39-.671-.39-.672 0-.672.672v41.953q0 1.547-2.407 2.5-2.39.968-5.562.968zm49.531-31.296h6.438q.765 0 1.234-.532.484-.53.484-1.203v-9.984q0-.766-.484-1.25-.469-.485-1.234-.485h-5.86q-.672 0-1.203.485-.531.484-.531 1.25v1.922q0 2.11-.094 4.125t-.281 3.937v.188q0 .578.422 1.062.437.485 1.11.485zm-17.469 0h3.641q1.734 0 1.922-1.735.203-1.922.297-3.937.094-2.016.094-4.125v-1.922q0-.766-.485-1.25-.484-.485-1.25-.485h-4.219q-.671 0-1.25.485-.578.484-.578 1.25v9.984q0 1.735 1.828 1.735zm52.422 31.187q-.203.11-.484.11-.578 0-.86-.485-.203-.187-.203-.578 0-.484.39-.766 8.735-6.812 12.86-17.375 4.125-10.562 4.797-24.203 0-2.39-.281-3.36-.094-.671.094-1.14.297-.484 1.25-.297 1.437.203 4.218.922 2.782.719 5.563 1.531 2.797.813 4.047 1.391.86.281.86 1.25 0 1.531-1.532 1.344h-.39q-1.25 0-1.532 1.531-.578 3.266-1.39 6.297-.813 3.016-1.876 5.797-.28.672-.28 1.547 0 .953.468 1.718 1.64 3.172 3.984 5.282 2.36 2.11 5.813 3.453.187.094.484.094 1.14 0 1.14-1.235V335.32q0-.765-.484-1.25-.468-.484-1.234-.484h-11.812q-2.688 0-5 .11-2.297.093-3.829.187h-.187q-1.547 0-2.031-1.547l-.188-.766v-.28q0-.485.375-.86.39-.39.875-.297 1.735.094 4.469.344 2.734.234 5.422.234h33.406q1.438 0 2.297-.953.39-.578 1.203-1.625.828-1.063 1.64-2.172.813-1.11 1.204-1.594.094-.187.234-.281.14-.094.235-.188 1.156-.671 1.734-2.218.375-1.047.766-2.203.39-1.157.765-2.11.094-.187.094-.484 0-1.25-1.25-1.25h-48.766q-.672 0-1.203.484-.515.485-.515 1.25 0 5.656-2.407 9.64-2.406 3.985-6.906 3.985-3.562 0-5.344-2.062-1.765-2.063-1.765-4.563 0-1.719.859-3.297.875-1.593 2.594-2.547 4.031-2.218 6.094-4.609 2.062-2.406 2.453-7.39.187-.876.953-1.063h.203q.766 0 1.047.672.484 1.25.86 2.453.39 1.203.687 2.437.28 1.735 2.109 1.735h18.328q.766 0 1.25-.531.485-.532.485-1.204v-4.703q0-4.125-.672-5.078-.391-.672-.094-1.25.375-.578 1.047-.578 1.062 0 3.031.203 1.969.188 4.172.422 2.203.234 4.125.531 1.922.282 2.89.47 1.141.39 1.141 1.546 0 1.531-1.531 1.719-1.047.11-1.438.593-.39.47-.39 1.532v4.593q0 .672.531 1.204.531.53 1.203.53h15.64q.782 0 1.063-.14.282-.14.672-.719.39-.671.953-1.78.578-1.11.969-1.673.578-.968 1.25-.968.469 0 1.14.296 1.548.563 4.079 2.11 2.547 1.531 5.047 3.219 2.5 1.671 3.843 2.828.86.672.86 2.015 0 .282-.188.86-.953 1.343-2.781 1.25-1.828 0-4.031.281-2.406.39-5.188 1.36-2.781.952-5.468 2.296-.579.281-.579.86 0 .578.485.875 1.812 1.234 3.594 2.828 1.78 1.578 2.64 2.64.39.47.39 1.141 0 1.25-1.062 1.25h-23.61q-.671 0-1.202.484-.531.485-.531 1.25v14.688q0 .672.53 1.203.532.531 1.204.531h7.766q.859 0 1.343-.14.485-.157.969-.735.375-.578 1.188-1.672.828-1.109 1.64-2.203.813-1.11 1.203-1.5.578-.765 1.25-.765.375 0 .953.28 1.344.579 3.266 1.923 1.922 1.343 3.64 2.797 1.735 1.437 2.5 2.484.391.484.391 1.25 0 1.25-1.062 1.25H823.69q-.672 0-1.203.484-.531.47-.531 1.25v14.578q0 .672.53 1.25.532.579 1.204.672 5.469.297 12.375.297 7.11 0 13.11-.578 6-.578 9.265-1.062h.094q.484 0 .672.39.187.375-.094.766-2.125 2.594-3.656 5.375-1.532 2.781-2.11 5.281-.484 1.625-2.015 1.625h-15.266q-11.813 0-19.594-2.453-7.765-2.438-12.422-6.938-4.656-4.515-7.156-10.468-.094-.485-.672-.485-.469 0-.765.391-3.844 7.094-9.516 12.328-5.656 5.234-12.844 8.875z"/><path fill="none" d="M94.488 394.016h771.024v45.354H94.488z"/><path fill="#595959" d="M341.332 428.572q-2.532 0-3.953-1.297-1.422-1.296-1.422-3.25 0-1.125.578-1.921.594-.797 1.781-.797.938 0 1.547.609.625.594.625 1.5 0 .64-.297.938-.297.28-.687.421-.391.141-.688.329-.297.171-.297.578 0 .609.688 1.03.687.407 1.86.407 1.921 0 2.702-1.36.797-1.359.797-4.046V407.76q0-.953-.531-1.438-.531-.484-1.906-.484-.485 0-.485-.406 0-.485.485-.485.125 0 .671.016.547.016 1.266.031l1.375.031q.656.016 1.031.016.391 0 1.063-.016l1.406-.03q.734-.016 1.297-.032.562-.016.687-.016.422 0 .422.485 0 .125-.109.265-.094.14-.313.14-1.375 0-1.937.47-.563.468-.563 1.453v13.797q0 2.468-.906 4.015-.906 1.547-2.515 2.282-1.594.718-3.672.718zm23.391.032q-3.109 0-5.5-1.5-2.375-1.516-3.718-4.22-1.344-2.702-1.344-6.28 0-3.657 1.406-6.344 1.406-2.688 3.781-4.172 2.391-1.484 5.375-1.484 2.97 0 5.344 1.484 2.39 1.484 3.797 4.172 1.422 2.687 1.422 6.344 0 3.578-1.36 6.28-1.359 2.704-3.734 4.22-2.375 1.5-5.469 1.5zm0-1.188q1.72 0 3.094-1 1.375-1.016 2.172-3.375.812-2.375.812-6.437 0-4.11-.812-6.47-.797-2.374-2.172-3.39-1.375-1.031-3.094-1.031-1.734 0-3.109 1.031-1.375 1.016-2.172 3.39-.797 2.36-.797 6.47 0 4.062.797 6.437.797 2.36 2.172 3.375 1.375 1 3.11 1zm18.88 1.156q-2.53 0-3.952-1.297-1.422-1.296-1.422-3.25 0-1.125.578-1.921.594-.797 1.781-.797.938 0 1.547.609.625.594.625 1.5 0 .64-.297.938-.297.28-.687.421-.391.141-.688.329-.297.171-.297.578 0 .609.688 1.03.687.407 1.86.407 1.921 0 2.702-1.36.797-1.359.797-4.046V407.76q0-.953-.531-1.438-.531-.484-1.906-.484-.485 0-.485-.406 0-.485.485-.485.125 0 .672.016.546.016 1.265.031l1.375.031q.656.016 1.031.016.391 0 1.063-.016l1.406-.03q.735-.016 1.297-.032.563-.016.688-.016.421 0 .421.485 0 .125-.109.265-.094.14-.312.14-1.375 0-1.938.47-.562.468-.562 1.453v13.797q0 2.468-.907 4.015-.906 1.547-2.515 2.282-1.594.718-3.672.718zm23.392.032q-3.109 0-5.5-1.5-2.375-1.516-3.718-4.22-1.344-2.702-1.344-6.28 0-3.657 1.406-6.344 1.406-2.688 3.781-4.172 2.391-1.484 5.375-1.484 2.97 0 5.344 1.484 2.39 1.484 3.797 4.172 1.422 2.687 1.422 6.344 0 3.578-1.36 6.28-1.359 2.704-3.734 4.22-2.375 1.5-5.469 1.5zm0-1.188q1.72 0 3.094-1 1.375-1.016 2.172-3.375.813-2.375.813-6.437 0-4.11-.813-6.47-.797-2.374-2.172-3.39-1.375-1.031-3.094-1.031-1.734 0-3.109 1.031-1.375 1.016-2.172 3.39-.797 2.36-.797 6.47 0 4.062.797 6.437.797 2.36 2.172 3.375 1.375 1 3.11 1zm22.935.797q-.47 0-.47-.453 0-.469.47-.469 1.343 0 1.984-.156.64-.172.844-.594.219-.437.219-1.203V407.79q0-.703-.188-1.11-.172-.421-.828-.593-.656-.172-2.094-.172-.156 0-.281-.14-.125-.157-.125-.313 0-.484.406-.484.297 0 1.61.046 1.312.047 3.453.047 2.656 0 4.562-.047 1.906-.046 3.047-.046 3.656 0 5.672 1.671 2.016 1.657 2.016 4.704 0 2.968-1.688 4.625-1.672 1.64-5.516 1.64h-5.765q-.375 0-.375.422v7.297q0 1.14.703 1.547.703.406 2.812.406.422 0 .422.469 0 .453-.422.453-.312 0-1.78-.047-1.454-.047-3.688-.047-2.141 0-3.407.047-1.265.047-1.593.047zm7.328-11.64h4.203q2.078 0 3.219-1.438 1.156-1.453 1.156-3.781 0-1.485-.438-2.688-.421-1.219-1.5-1.953-1.062-.734-2.984-.734h-3.36q-.296 0-.484.109-.187.11-.187.562v9.5q0 .125.11.282.109.14.265.14zm26.154 12.03q-3.11 0-5.5-1.5-2.375-1.515-3.72-4.218-1.343-2.703-1.343-6.281 0-3.657 1.406-6.344 1.407-2.688 3.782-4.172 2.39-1.484 5.375-1.484 2.968 0 5.343 1.484 2.39 1.484 3.797 4.172 1.422 2.687 1.422 6.344 0 3.578-1.36 6.28-1.359 2.704-3.734 4.22-2.375 1.5-5.468 1.5zm0-1.187q1.718 0 3.093-1 1.375-1.016 2.172-3.375.813-2.375.813-6.437 0-4.11-.813-6.47-.797-2.374-2.172-3.39-1.375-1.031-3.093-1.031-1.735 0-3.11 1.031-1.375 1.016-2.172 3.39-.797 2.36-.797 6.47 0 4.062.797 6.437.797 2.36 2.172 3.375 1.375 1 3.11 1zm23.317 1.188q-1.468 0-2.78-.375-1.313-.375-2.266-.782-.938-.422-1.313-.578-.328-.156-.687-.125-.344.031-.594.313l-.031.03q-.032 0-.141.126-.11.11-.688.64-.328.329-.625.188-.28-.14-.28-.5v-6.234q0-.391.437-.453.437-.063.531.218.61 1.797 1.844 3.203 1.25 1.407 3 2.204 1.75.78 3.765.78 1.657 0 2.688-.671 1.047-.672 1.562-1.719.516-1.047.516-2.062 0-1.375-.766-2.22-.765-.858-2.015-1.374-1.25-.531-2.782-.906-1.515-.391-3.015-.844-1.5-.453-2.75-1.172-1.25-.719-2.016-1.922-.765-1.203-.765-3.047 0-2.218 1.062-3.703 1.078-1.484 2.86-2.25 1.796-.765 3.874-.765 1.063 0 2.141.234 1.094.234 2.016.578.937.328 1.422.625.765.406 1.171 0 .329-.328.5-.437l.172-.11q.266-.25.547-.11.297.141.297.563v5.469q0 .406-.406.516-.39.093-.563-.328-.703-1.563-1.78-2.907-1.063-1.343-2.454-2.172-1.39-.843-3.063-.843-1.375 0-2.437.593-1.047.594-1.656 1.563-.61.953-.61 2.14 0 1.344.782 2.141.796.797 2.062 1.281 1.281.47 2.828.829 1.563.359 3.094.796 1.547.422 2.828 1.157 1.281.734 2.063 1.968.78 1.235.78 3.22 0 2.265-1.093 3.905-1.078 1.625-2.969 2.485-1.89.844-4.297.844zm11.139-.391q-.406 0-.406-.516 0-.406.406-.406 1.797 0 2.422-.453.625-.453.625-1.5V407.79q0-.953-.578-1.437-.578-.485-2.313-.485-.406 0-.406-.469 0-.421.406-.421.266 0 2.453.03 2.188.032 6.454.032 4.03 0 6.109-.031 2.078-.031 2.375-.031.734 0 .765.734.063.297.094.953.031.656.063 1.39.031.735.047 1.313.015.578.015.735 0 .125-.062.265-.063.14-.282.14-.234 0-.343-.046-.11-.047-.203-.266-.391-.86-.985-1.828-.594-.984-1.578-1.687-.969-.703-2.531-.703h-4.953q-.297 0-.485.125-.187.125-.187.546v8.766q0 .125.125.266.125.14.281.14h1.64q1.345 0 2.048-.562.703-.578 1.03-1.344.345-.781.563-1.312.094-.266.172-.375.094-.11.344-.11.219 0 .297.156.094.157.094.329 0 .25-.032.906-.015.656-.03 1.422-.016.765-.016 1.406 0 .61.015 1.469.016.843.031 1.53.032.688.032.907 0 .485-.391.485-.36 0-.484-.422-.22-.61-.578-1.422-.344-.813-1.047-1.438t-2.047-.625h-1.64q-.407 0-.407.485v9.25q0 .593.64.593h4.313q1.531 0 2.594-.546 1.062-.563 1.75-1.407.687-.86 1.062-1.703.39-.844.578-1.422.094-.297.203-.328.125-.031.344 0h.031q.25.031.282.172.031.125.031.281 0 .125-.016.797-.015.672-.03 1.563l-.032 1.625q-.016.75-.016 1.047 0 .406-.234.703-.235.28-.688.28-.218 0-1-.03-.765-.032-2.53-.047-1.75-.016-4.923-.016-3.906 0-6.422.047-2.5.047-2.859.047zm30.688 0q-.406 0-.406-.516 0-.406.406-.406 1.797 0 2.422-.453.625-.453.625-1.5V407.79q0-.953-.578-1.437-.578-.485-2.313-.485-.406 0-.406-.469 0-.421.406-.421.266 0 2.453.03 2.188.032 6.454.032 4.03 0 6.109-.031 2.078-.031 2.375-.031.734 0 .766.734.062.297.093.953.032.656.063 1.39.031.735.047 1.313.015.578.015.735 0 .125-.062.265-.063.14-.281.14-.235 0-.344-.046-.11-.047-.203-.266-.39-.86-.985-1.828-.593-.984-1.578-1.687-.969-.703-2.531-.703h-4.953q-.297 0-.485.125-.187.125-.187.546v8.766q0 .125.125.266.125.14.281.14h1.64q1.345 0 2.048-.562.703-.578 1.031-1.344.344-.781.562-1.312.094-.266.172-.375.094-.11.344-.11.219 0 .297.156.094.157.094.329 0 .25-.032.906-.015.656-.03 1.422-.016.765-.016 1.406 0 .61.015 1.469.016.843.031 1.53.032.688.032.907 0 .485-.39.485-.36 0-.485-.422-.219-.61-.578-1.422-.344-.813-1.047-1.438t-2.047-.625h-1.64q-.407 0-.407.485v9.25q0 .593.64.593h4.313q1.531 0 2.594-.546 1.062-.563 1.75-1.407.687-.86 1.062-1.703.391-.844.578-1.422.094-.297.204-.328.125-.031.343 0h.032q.25.031.28.172.032.125.032.281 0 .125-.016.797-.015.672-.03 1.563-.016.875-.032 1.625t-.016 1.047q0 .406-.234.703-.234.28-.688.28-.218 0-1-.03-.765-.032-2.53-.047-1.75-.016-4.923-.016-3.906 0-6.422.047-2.5.047-2.859.047zm21.212 0q-.437 0-.437-.422 0-.5.437-.5.938 0 1.688-.281.75-.297 1.531-1.063.781-.781 1.781-2.25.188-.281.704-1.031.515-.75 1.14-1.687.625-.954 1.203-1.813.594-.875.922-1.39.188-.313-.031-.704-1.25-2.203-2.328-3.953-1.063-1.765-1.735-2.844-.671-1.078-.765-1.234-.906-1.531-1.703-2.328-.797-.797-1.797-.797-.188 0-.297-.14-.11-.157-.11-.313 0-.484.407-.484.234 0 .89.03.657.032 1.516.048.86.015 1.703.015.922 0 1.797-.015.89-.016 1.5-.047.625-.031.797-.031.437 0 .437.484 0 .156-.109.312-.11.141-.328.141-1.25 0-1.422.39-.156.376.328 1.235.094.125.61.984.515.844 1.312 2.141.797 1.297 1.766 2.797.218.344.468 0 .766-1.156 1.47-2.188.718-1.046 1.187-1.765.484-.719.547-.844.578-1.031.125-1.89-.438-.86-1.782-.86-.234 0-.359-.14-.125-.157-.125-.313 0-.484.484-.484.282 0 1.188.046.922.047 2.453.047 1.406 0 2.234-.047.844-.046 1.157-.046.453 0 .453.484 0 .156-.125.312-.11.141-.328.141-1.079 0-2.141.781-1.063.782-1.89 2.063-.376.578-1.36 2.11-.969 1.53-2.484 3.75-.282.405-.032.765 1.157 1.812 2.188 3.547 1.047 1.734 1.89 3.078.86 1.344 1.297 2.047.875 1.28 1.735 2.265.86.969 1.797.969.468 0 .468.5 0 .422-.468.422-.329 0-1.485-.031-1.14-.032-2.36-.032-.937 0-1.905.016-.97.016-1.688.031-.703.016-.86.016-.437 0-.437-.422 0-.5.438-.5 1.187 0 1.36-.422.187-.422-.329-1.25-.484-.828-1.125-1.844l-1.25-2.015q-.61-1-1.078-1.75-.453-.75-.61-1.047-.093-.156-.265-.14-.156.015-.25.14-1.094 1.562-2.078 3.062l-1.469 2.25q-.547.829-.39 1.516.156.688.734 1.094.578.406 1.312.406.485 0 .485.5 0 .422-.485.422-.281 0-1.265-.031-.97-.032-2.485-.032-1.406 0-2.531.032-1.11.03-1.438.03zm23.265 0q-.407 0-.407-.422 0-.5.407-.5 1.125 0 1.765-.406.64-.406 1.156-1.516.25-.515.75-1.734.5-1.219 1.157-2.906.656-1.704 1.39-3.625.735-1.922 1.469-3.829l1.36-3.562q.624-1.656 1.046-2.844.438-1.187.61-1.594.156-.421.359-.546.203-.125.719-.125.515 0 .734.125.235.125.39.546l.813 2.079q.563 1.437 1.297 3.328.735 1.89 1.531 3.953.813 2.062 1.563 4.015.75 1.954 1.36 3.532.609 1.578.952 2.453.579 1.469 1.235 2.062.656.594 1.265.594.407 0 .407.5 0 .422-.407.422-.328 0-1.328-.016-.984-.015-2.64-.015-1.375 0-2.625.015-1.25.016-1.563.016-.422 0-.422-.422 0-.5.422-.5 1.016 0 1.406-.328.407-.344.407-.813 0-.468-.157-.78-.03-.063-.187-.563-.156-.5-.406-1.22-.235-.718-.5-1.468-.25-.75-.438-1.328-.125-.36-.265-.422-.125-.062-.344-.062h-7.875q-.156 0-.25.03-.094.032-.172.267-.156.671-.469 1.578-.297.906-.515 1.765-.22.844-.22 1.39 0 1.173.579 1.563.594.391 1.656.391.422 0 .422.5 0 .422-.422.422-.312 0-1.203-.016-.875-.015-2.281-.015-1.25 0-2.219.015-.953.016-1.312.016zm6.89-8.953h6.938q.125 0 .265-.047.157-.063.063-.375-.266-.766-.656-1.875-.375-1.11-.829-2.313-.437-1.218-.843-2.343-.391-1.125-.703-1.953-.297-.829-.391-1.11-.078-.172-.188-.203-.109-.031-.171.125-.063.234-.422 1.11-.344.874-.844 2.109-.5 1.234-1.016 2.531-.5 1.297-.906 2.344-.39 1.031-.562 1.515-.125.485.265.485zm18.049 8.953q-.422 0-.422-.516 0-.406.422-.406 1.343 0 2.172-.969.828-.984.828-3.328v-14.906q0-1.156-.532-1.688-.515-.53-1.828-.53-.422 0-.422-.438 0-.453.422-.453.282 0 1.97.03 1.702.032 4.046.032 1.078 0 1.375.828.062.203.437 1.297.391 1.078.954 2.672l1.187 3.328q.625 1.734 1.172 3.313l.937 2.609.438 1.156q.344 1 .828-.187.063-.203.422-1.203.375-1.016.906-2.532.531-1.515 1.094-3.203.578-1.703 1.11-3.219.53-1.53.89-2.593.375-1.078.437-1.297.282-.969 1.407-.969 2.343 0 3.906-.031 1.562-.031 1.797-.031.406 0 .406.453 0 .437-.406.437-1.188 0-1.656.5-.454.5-.454 1.422v17.453q0 1.016.375 1.531.391.516 1.532.516.422 0 .422.406 0 .516-.422.516-.313 0-1.266-.047-.937-.047-2.406-.047-.922 0-1.938.016-1.015.015-1.75.047-.734.03-.953.03-.484 0-.484-.515 0-.406.484-.406 1.469 0 2.016-.469.547-.468.547-1.578V407.23q0-.235-.172-.235-.156 0-.219.125-.031.11-.437 1.235-.391 1.109-1.016 2.906-.625 1.781-1.36 3.922-.734 2.125-1.468 4.234-.735 2.11-1.344 3.875-.61 1.75-.984 2.844l-.36 1.094q-.093.25-.187.296-.078.047-.235.047-.25 0-.375-.281-.046-.062-.453-1.125-.39-1.062-1.047-2.781-.656-1.735-1.421-3.781-.766-2.047-1.547-4.094-.782-2.047-1.438-3.75l-1.062-2.781q-.407-1.079-.438-1.125-.031-.094-.14-.063-.11.031-.11.172v15q0 2.437.953 3.39.97.938 2.25.938.485 0 .485.406 0 .516-.485.516-.328 0-1.312-.047-.969-.047-2.375-.047-1.656 0-2.516.047-.844.047-1.187.047z"/></g></svg>